<svg width="1030" height="198" viewBox="0 0 1030 198" fill="none" xmlns="http://www.w3.org/2000/svg">
<g filter="url(#filter0_d_5_3567)">
<path d="M61.5491 6.5468C73.2911 6.5468 83.2267 8.54683 91.3559 12.5469C99.485 16.4179 105.679 21.9663 109.937 29.1922C114.195 36.2891 116.324 44.7408 116.324 54.5473C116.324 60.3539 115.421 66.2249 113.614 72.1604C111.937 77.967 109.162 83.2573 105.291 88.0316C101.55 92.8058 96.4527 96.6768 90.001 99.6446C83.6783 102.483 75.8718 103.903 66.5814 103.903H46.4521V149H18.3873V6.5468H61.5491ZM66.3878 76.6121C70.6459 76.6121 74.1944 75.9024 77.0331 74.483C79.8719 72.9346 82.0654 71.0637 83.6138 68.8701C85.2913 66.5475 86.4526 64.1604 87.0977 61.7087C87.8719 59.2571 88.259 57.128 88.259 55.3215C88.259 53.9022 88.001 52.0312 87.4848 49.7086C87.0977 47.2569 86.1945 44.8053 84.7751 42.3537C83.3558 39.902 81.1622 37.8375 78.1944 36.16C75.3557 34.4826 71.4847 33.6439 66.5814 33.6439H46.4521V76.6121H66.3878ZM91.6507 149L155.909 0.933842H157.458L221.717 149H189.2L148.167 44.8698L168.49 30.9342L119.328 149H91.6507ZM135.587 97.5156H178.361L188.232 121.129H126.877L135.587 97.5156ZM350.677 154.807L242.676 57.257L250.999 61.9023L251.579 149H223.127V0.933842H224.289L329.967 98.0962L323.774 95.3865L323.193 6.5468H351.451V154.807H350.677ZM352.717 149L416.976 0.933842H418.524L482.783 149H450.267L409.234 44.8698L429.557 30.9342L380.395 149H352.717ZM396.653 97.5156H439.428L449.299 121.129H387.943L396.653 97.5156ZM484.319 6.5468L525.933 109.129L509.674 105.838L547.417 6.5468H580.708L515.675 155.581L450.642 6.5468H484.319ZM585.997 6.5468H683.159V33.6439H614.062V64.0313H675.224V91.1284H614.062V121.903H685.869V149H585.997V6.5468ZM738.711 6.5468C747.615 6.5468 755.55 7.70811 762.518 10.0307C769.486 12.2243 775.292 15.4501 779.938 19.7082C784.712 23.8373 788.325 28.8696 790.776 34.8052C793.228 40.6117 794.454 47.1924 794.454 54.5473C794.454 60.3539 793.551 66.1604 791.744 71.9669C790.067 77.7734 787.228 83.0638 783.228 87.838C779.357 92.6123 774.196 96.4833 767.744 99.4511C761.292 102.29 753.292 103.709 743.744 103.709H723.614V149H695.549V6.5468H738.711ZM743.55 76.6121C747.808 76.6121 751.357 75.9024 754.195 74.483C757.034 73.0637 759.228 71.2572 760.776 69.0636C762.453 66.8701 763.615 64.612 764.26 62.2894C765.034 59.8377 765.421 57.5796 765.421 55.5151C765.421 53.9667 765.163 52.0312 764.647 49.7086C764.26 47.2569 763.357 44.8053 761.937 42.3537C760.518 39.902 758.324 37.8375 755.357 36.16C752.518 34.4826 748.647 33.6439 743.744 33.6439H723.614V76.6121H743.55ZM769.873 94.0316L805.099 149H772.389L736.389 94.8059L769.873 94.0316ZM884.948 40.9988C879.528 38.031 873.98 35.5794 868.302 33.6439C862.754 31.7084 857.528 30.7406 852.625 30.7406C846.56 30.7406 841.786 31.9665 838.302 34.4181C834.818 36.8697 833.076 40.5472 833.076 45.4505C833.076 48.8053 834.367 51.8376 836.947 54.5473C839.657 57.128 843.076 59.4506 847.205 61.5152C851.464 63.5797 855.851 65.4507 860.367 67.1281C864.496 68.6765 868.56 70.5475 872.561 72.7411C876.69 74.8056 880.367 77.4508 883.593 80.6767C886.819 83.7735 889.399 87.709 891.335 92.4832C893.27 97.1285 894.238 102.87 894.238 109.709C894.238 116.935 892.367 123.645 888.625 129.838C884.883 136.032 879.399 141.064 872.173 144.935C864.948 148.677 856.044 150.548 845.463 150.548C840.044 150.548 834.496 150.032 828.818 149C823.27 147.839 817.786 146.161 812.366 143.968C806.947 141.645 801.721 138.742 796.689 135.258L809.076 113.387C812.431 115.838 816.044 118.032 819.915 119.967C823.915 121.774 827.915 123.193 831.915 124.226C835.915 125.258 839.592 125.774 842.947 125.774C846.302 125.774 849.657 125.322 853.012 124.419C856.496 123.387 859.335 121.709 861.528 119.387C863.851 117.064 865.012 113.838 865.012 109.709C865.012 106.871 864.044 104.29 862.109 101.967C860.302 99.6446 857.786 97.5156 854.56 95.5801C851.464 93.6445 848.044 91.9671 844.302 90.5477C839.915 88.8703 835.399 86.9348 830.754 84.7412C826.108 82.5477 821.721 79.9025 817.592 76.8057C813.592 73.5798 810.302 69.6443 807.721 64.9991C805.269 60.2248 804.044 54.4183 804.044 47.5795C804.044 39.3214 805.85 32.16 809.463 26.0954C813.205 20.0308 818.431 15.2566 825.141 11.7727C831.85 8.15973 839.592 6.15971 848.367 5.77261C859.851 5.77261 869.141 7.12746 876.238 9.83717C883.464 12.5469 889.916 15.7727 895.593 19.5147L884.948 40.9988ZM902.369 6.5468H999.531V33.6439H930.434V64.0313H991.596V91.1284H930.434V121.903H1002.24V149H902.369V6.5468Z" fill="url(#paint0_radial_5_3567)" fill-opacity="0.2"/>
<path d="M91.3559 12.5469L89.2247 16.8779L89.2525 16.8917L89.2806 16.905L91.3559 12.5469ZM109.937 29.1922L105.778 31.6429L105.788 31.6593L105.798 31.6757L109.937 29.1922ZM113.614 72.1604L108.996 70.755L108.986 70.7878L108.977 70.8208L113.614 72.1604ZM105.291 88.0316L101.542 84.9915L101.517 85.0225L101.492 85.0539L105.291 88.0316ZM90.001 99.6446L91.9781 104.048L91.9982 104.039L92.0182 104.03L90.001 99.6446ZM46.4521 103.903V99.0757H41.6251V103.903H46.4521ZM46.4521 149V153.827H51.2791V149H46.4521ZM18.3873 149H13.5603V153.827H18.3873V149ZM18.3873 6.5468V1.71979H13.5603V6.5468H18.3873ZM77.0331 74.483L79.1918 78.8005L79.2689 78.7619L79.3445 78.7207L77.0331 74.483ZM83.6138 68.8701L79.7007 66.0439L79.6854 66.0651L79.6703 66.0864L83.6138 68.8701ZM87.0977 61.7087L82.4948 60.2551L82.4595 60.3669L82.4297 60.4803L87.0977 61.7087ZM87.4848 49.7086L82.7169 50.4614L82.7403 50.6094L82.7728 50.7557L87.4848 49.7086ZM84.7751 42.3537L80.5977 44.7722L80.5977 44.7722L84.7751 42.3537ZM78.1944 36.16L75.7388 40.3157L75.7788 40.3394L75.8193 40.3623L78.1944 36.16ZM46.4521 33.6439V28.8169H41.6251V33.6439H46.4521ZM46.4521 76.6121H41.6251V81.4391H46.4521V76.6121ZM61.5491 11.3738C72.7631 11.3738 81.925 13.286 89.2247 16.8779L93.487 8.2158C84.5285 3.80763 73.8192 1.71979 61.5491 1.71979V11.3738ZM89.2806 16.905C96.6076 20.3941 102.045 25.3081 105.778 31.6429L114.095 26.7416C109.312 18.6246 102.362 12.4417 93.4311 8.18875L89.2806 16.905ZM105.798 31.6757C109.528 37.8938 111.497 45.4525 111.497 54.5473H121.151C121.151 44.029 118.861 34.6843 114.076 26.7087L105.798 31.6757ZM111.497 54.5473C111.497 59.8461 110.674 65.2439 108.996 70.755L118.232 73.5659C120.168 67.2059 121.151 60.8616 121.151 54.5473H111.497ZM108.977 70.8208C107.482 75.9961 105.013 80.7102 101.542 84.9915L109.041 91.0716C113.312 85.8044 116.392 79.9378 118.252 73.5001L108.977 70.8208ZM101.492 85.0539C98.2986 89.1286 93.857 92.5576 87.9838 95.2593L92.0182 104.03C99.0484 100.796 104.8 96.483 109.091 91.0093L101.492 85.0539ZM88.0239 95.2411C82.4964 97.7228 75.4102 99.0757 66.5814 99.0757V108.73C76.3334 108.73 84.8603 107.244 91.9781 104.048L88.0239 95.2411ZM66.5814 99.0757H46.4521V108.73H66.5814V99.0757ZM41.6251 103.903V149H51.2791V103.903H41.6251ZM46.4521 144.173H18.3873V153.827H46.4521V144.173ZM23.2143 149V6.5468H13.5603V149H23.2143ZM18.3873 11.3738H61.5491V1.71979H18.3873V11.3738ZM66.3878 81.4391C71.1511 81.4391 75.4941 80.6493 79.1918 78.8005L74.8744 70.1656C72.8947 71.1555 70.1408 71.7851 66.3878 71.7851V81.4391ZM79.3445 78.7207C82.7006 76.8901 85.505 74.5613 87.5573 71.6537L79.6703 66.0864C78.6259 67.566 77.0431 68.9792 74.7217 70.2454L79.3445 78.7207ZM87.527 71.6963C89.5073 68.9543 90.9511 66.0331 91.7658 62.9371L82.4297 60.4803C81.954 62.2876 81.0752 64.1407 79.7007 66.0439L87.527 71.6963ZM91.7007 63.1623C92.566 60.4221 93.0861 57.7811 93.0861 55.3215H83.432C83.432 56.4749 83.1779 58.092 82.4948 60.2551L91.7007 63.1623ZM93.0861 55.3215C93.0861 53.3931 92.7456 51.1305 92.1969 48.6615L82.7728 50.7557C83.2564 52.9319 83.432 54.4112 83.432 55.3215H93.0861ZM92.2528 48.9557C91.7609 45.8404 90.6279 42.829 88.9526 39.9352L80.5977 44.7722C81.7611 46.7816 82.4346 48.6735 82.7169 50.4614L92.2528 48.9557ZM88.9526 39.9352C87.0221 36.6006 84.1337 33.9723 80.5696 31.9578L75.8193 40.3623C78.1906 41.7026 79.6895 43.2034 80.5977 44.7722L88.9526 39.9352ZM80.6501 32.0043C76.7905 29.7237 71.9569 28.8169 66.5814 28.8169V38.4709C71.0124 38.4709 73.9208 39.2415 75.7388 40.3157L80.6501 32.0043ZM66.5814 28.8169H46.4521V38.4709H66.5814V28.8169ZM41.6251 33.6439V76.6121H51.2791V33.6439H41.6251ZM46.4521 81.4391H66.3878V71.7851H46.4521V81.4391ZM91.6507 149L87.2227 147.078L84.2939 153.827H91.6507V149ZM155.909 0.933842V-3.89317H152.742L151.481 -0.987851L155.909 0.933842ZM157.458 0.933842L161.886 -0.987851L160.625 -3.89317H157.458V0.933842ZM221.717 149V153.827H229.074L226.145 147.078L221.717 149ZM189.2 149L184.709 150.77L185.914 153.827H189.2V149ZM148.167 44.8698L145.438 40.8888L142.267 43.0629L143.677 46.6395L148.167 44.8698ZM168.49 30.9342L172.946 32.7897L179.22 17.7241L165.76 26.9532L168.49 30.9342ZM119.328 149V153.827H122.547L123.785 150.856L119.328 149ZM135.587 97.5156V92.6885H132.222L131.058 95.8451L135.587 97.5156ZM178.361 97.5156L182.815 95.6538L181.575 92.6885H178.361V97.5156ZM188.232 121.129V125.956H195.482L192.686 119.267L188.232 121.129ZM126.877 121.129L122.348 119.458L119.952 125.956H126.877V121.129ZM96.0787 150.922L160.337 2.85553L151.481 -0.987851L87.2227 147.078L96.0787 150.922ZM155.909 5.76086H157.458V-3.89317H155.909V5.76086ZM153.03 2.85553L217.289 150.922L226.145 147.078L161.886 -0.987851L153.03 2.85553ZM221.717 144.173H189.2V153.827H221.717V144.173ZM193.691 147.23L152.658 43.1002L143.677 46.6395L184.709 150.77L193.691 147.23ZM150.897 48.8508L171.22 34.9152L165.76 26.9532L145.438 40.8888L150.897 48.8508ZM164.034 29.0787L114.872 147.144L123.785 150.856L172.946 32.7897L164.034 29.0787ZM119.328 144.173H91.6507V153.827H119.328V144.173ZM135.587 102.343H178.361V92.6885H135.587V102.343ZM173.908 99.3773L183.779 122.99L192.686 119.267L182.815 95.6538L173.908 99.3773ZM188.232 116.302H126.877V125.956H188.232V116.302ZM131.406 122.799L140.115 99.186L131.058 95.8451L122.348 119.458L131.406 122.799ZM350.677 154.807L347.442 158.389L348.82 159.634H350.677V154.807ZM242.676 57.257L245.029 53.0421L239.441 60.8392L242.676 57.257ZM250.999 61.9023L255.826 61.8701L255.807 59.0579L253.351 57.6873L250.999 61.9023ZM251.579 149V153.827H256.439L256.406 148.968L251.579 149ZM223.127 149H218.3V153.827H223.127V149ZM223.127 0.933842V-3.89317H218.3V0.933842H223.127ZM224.289 0.933842L227.556 -2.61954L226.171 -3.89317H224.289V0.933842ZM329.967 98.0962L328.033 102.519L333.234 94.5428L329.967 98.0962ZM323.774 95.3865L318.947 95.4181L318.967 98.5525L321.839 99.8088L323.774 95.3865ZM323.193 6.5468V1.71979H318.334L318.366 6.57835L323.193 6.5468ZM351.451 6.5468H356.278V1.71979H351.451V6.5468ZM351.451 154.807V159.634H356.278V154.807H351.451ZM353.913 151.224L245.912 53.6749L239.441 60.8392L347.442 158.389L353.913 151.224ZM240.324 61.472L248.646 66.1172L253.351 57.6873L245.029 53.0421L240.324 61.472ZM246.172 61.9344L246.752 149.032L256.406 148.968L255.826 61.8701L246.172 61.9344ZM251.579 144.173H223.127V153.827H251.579V144.173ZM227.954 149V0.933842H218.3V149H227.954ZM223.127 5.76086H224.289V-3.89317H223.127V5.76086ZM221.022 4.48723L326.7 101.65L333.234 94.5428L227.556 -2.61954L221.022 4.48723ZM331.902 93.6739L325.708 90.9642L321.839 99.8088L328.033 102.519L331.902 93.6739ZM328.601 95.355L328.02 6.51526L318.366 6.57835L318.947 95.4181L328.601 95.355ZM323.193 11.3738H351.451V1.71979H323.193V11.3738ZM346.624 6.5468V154.807H356.278V6.5468H346.624ZM351.451 149.98H350.677V159.634H351.451V149.98ZM352.717 149L348.289 147.078L345.36 153.827H352.717V149ZM416.976 0.933842V-3.89317H413.809L412.548 -0.987851L416.976 0.933842ZM418.524 0.933842L422.952 -0.987851L421.691 -3.89317H418.524V0.933842ZM482.783 149V153.827H490.14L487.211 147.078L482.783 149ZM450.267 149L445.776 150.77L446.98 153.827H450.267V149ZM409.234 44.8698L406.504 40.8888L403.334 43.0629L404.743 46.6395L409.234 44.8698ZM429.557 30.9342L434.013 32.7897L440.286 17.7241L426.827 26.9532L429.557 30.9342ZM380.395 149V153.827H383.614L384.851 150.856L380.395 149ZM396.653 97.5156V92.6885H393.289L392.124 95.8451L396.653 97.5156ZM439.428 97.5156L443.881 95.6538L442.642 92.6885H439.428V97.5156ZM449.299 121.129V125.956H456.548L453.752 119.267L449.299 121.129ZM387.943 121.129L383.415 119.458L381.018 125.956H387.943V121.129ZM357.145 150.922L421.404 2.85553L412.548 -0.987851L348.289 147.078L357.145 150.922ZM416.976 5.76086H418.524V-3.89317H416.976V5.76086ZM414.096 2.85553L478.355 150.922L487.211 147.078L422.952 -0.987851L414.096 2.85553ZM482.783 144.173H450.267V153.827H482.783V144.173ZM454.757 147.23L413.725 43.1002L404.743 46.6395L445.776 150.77L454.757 147.23ZM411.964 48.8508L432.286 34.9152L426.827 26.9532L406.504 40.8888L411.964 48.8508ZM425.1 29.0787L375.939 147.144L384.851 150.856L434.013 32.7897L425.1 29.0787ZM380.395 144.173H352.717V153.827H380.395V144.173ZM396.653 102.343H439.428V92.6885H396.653V102.343ZM434.974 99.3773L444.845 122.99L453.752 119.267L443.881 95.6538L434.974 99.3773ZM449.299 116.302H387.943V125.956H449.299V116.302ZM392.472 122.799L401.182 99.186L392.124 95.8451L383.415 119.458L392.472 122.799ZM484.319 6.5468L488.792 4.73229L487.57 1.71979H484.319V6.5468ZM525.933 109.129L524.975 113.86L533.784 115.642L530.406 107.314L525.933 109.129ZM509.674 105.838L505.162 104.123L503.141 109.441L508.717 110.569L509.674 105.838ZM547.417 6.5468V1.71979H544.088L542.905 4.8317L547.417 6.5468ZM580.708 6.5468L585.132 8.47734L588.08 1.71979H580.708V6.5468ZM515.675 155.581L511.25 157.511L515.675 167.65L520.099 157.511L515.675 155.581ZM450.642 6.5468V1.71979H443.269L446.217 8.47734L450.642 6.5468ZM479.846 8.36132L521.46 110.943L530.406 107.314L488.792 4.73229L479.846 8.36132ZM526.89 104.397L510.632 101.107L508.717 110.569L524.975 113.86L526.89 104.397ZM514.187 107.553L551.929 8.26191L542.905 4.8317L505.162 104.123L514.187 107.553ZM547.417 11.3738H580.708V1.71979H547.417V11.3738ZM576.283 4.61627L511.25 153.65L520.099 157.511L585.132 8.47734L576.283 4.61627ZM520.099 153.65L455.066 4.61627L446.217 8.47734L511.25 157.511L520.099 153.65ZM450.642 11.3738H484.319V1.71979H450.642V11.3738ZM585.997 6.5468V1.71979H581.17V6.5468H585.997ZM683.159 6.5468H687.986V1.71979H683.159V6.5468ZM683.159 33.6439V38.4709H687.986V33.6439H683.159ZM614.062 33.6439V28.8169H609.235V33.6439H614.062ZM614.062 64.0313H609.235V68.8583H614.062V64.0313ZM675.224 64.0313H680.051V59.2043H675.224V64.0313ZM675.224 91.1284V95.9554H680.051V91.1284H675.224ZM614.062 91.1284V86.3014H609.235V91.1284H614.062ZM614.062 121.903H609.235V126.73H614.062V121.903ZM685.869 121.903H690.696V117.076H685.869V121.903ZM685.869 149V153.827H690.696V149H685.869ZM585.997 149H581.17V153.827H585.997V149ZM585.997 11.3738H683.159V1.71979H585.997V11.3738ZM678.332 6.5468V33.6439H687.986V6.5468H678.332ZM683.159 28.8169H614.062V38.4709H683.159V28.8169ZM609.235 33.6439V64.0313H618.889V33.6439H609.235ZM614.062 68.8583H675.224V59.2043H614.062V68.8583ZM670.397 64.0313V91.1284H680.051V64.0313H670.397ZM675.224 86.3014H614.062V95.9554H675.224V86.3014ZM609.235 91.1284V121.903H618.889V91.1284H609.235ZM614.062 126.73H685.869V117.076H614.062V126.73ZM681.042 121.903V149H690.696V121.903H681.042ZM685.869 144.173H585.997V153.827H685.869V144.173ZM590.824 149V6.5468H581.17V149H590.824ZM762.518 10.0307L760.992 14.61L761.03 14.6228L761.068 14.635L762.518 10.0307ZM779.938 19.7082L776.676 23.2665L776.727 23.3136L776.78 23.3592L779.938 19.7082ZM790.776 34.8052L786.315 36.6479L786.322 36.6654L786.329 36.6828L790.776 34.8052ZM791.744 71.9669L787.135 70.5329L787.12 70.5799L787.107 70.6272L791.744 71.9669ZM783.228 87.838L779.528 84.738L779.503 84.7678L779.478 84.798L783.228 87.838ZM767.744 99.4511L769.688 103.869L769.725 103.853L769.761 103.836L767.744 99.4511ZM723.614 103.709V98.8822H718.787V103.709H723.614ZM723.614 149V153.827H728.441V149H723.614ZM695.549 149H690.722V153.827H695.549V149ZM695.549 6.5468V1.71979H690.722V6.5468H695.549ZM754.195 74.483L756.354 78.8005L756.354 78.8005L754.195 74.483ZM760.776 69.0636L756.942 66.1315L756.886 66.2047L756.832 66.28L760.776 69.0636ZM764.26 62.2894L759.657 60.8358L759.632 60.9162L759.609 60.9974L764.26 62.2894ZM764.647 49.7086L759.879 50.4614L759.902 50.6094L759.935 50.7557L764.647 49.7086ZM761.937 42.3537L757.76 44.7722L757.76 44.7722L761.937 42.3537ZM755.357 36.16L752.901 40.3157L752.941 40.3394L752.981 40.3623L755.357 36.16ZM723.614 33.6439V28.8169H718.787V33.6439H723.614ZM723.614 76.6121H718.787V81.4391H723.614V76.6121ZM769.873 94.0316L773.937 91.4272L772.473 89.1432L769.761 89.2059L769.873 94.0316ZM805.099 149V153.827H813.926L809.163 146.396L805.099 149ZM772.389 149L768.368 151.671L769.801 153.827H772.389V149ZM736.389 94.8059L736.277 89.9801L727.522 90.1825L732.368 97.4768L736.389 94.8059ZM738.711 11.3738C747.202 11.3738 754.608 12.482 760.992 14.61L764.044 5.45141C756.493 2.93418 748.027 1.71979 738.711 1.71979V11.3738ZM761.068 14.635C767.47 16.6502 772.628 19.5556 776.676 23.2665L783.199 16.15C777.957 11.3447 771.502 7.79841 763.967 5.42647L761.068 14.635ZM776.78 23.3592C780.974 26.9867 784.146 31.396 786.315 36.6479L795.238 32.9624C792.504 26.3432 788.449 20.6879 783.095 16.0573L776.78 23.3592ZM786.329 36.6828C788.492 41.8044 789.627 47.7311 789.627 54.5473H799.281C799.281 46.6538 797.964 39.419 795.223 32.9276L786.329 36.6828ZM789.627 54.5473C789.627 59.845 788.804 65.1686 787.135 70.5329L796.353 73.4008C798.297 67.1521 799.281 60.8627 799.281 54.5473H789.627ZM787.107 70.6272C785.622 75.7682 783.11 80.4628 779.528 84.738L786.928 90.938C791.346 85.6648 794.512 79.7786 796.381 73.3066L787.107 70.6272ZM779.478 84.798C776.141 88.9136 771.61 92.3594 765.727 95.0658L769.761 103.836C776.781 100.607 782.572 96.3109 786.977 90.8781L779.478 84.798ZM765.8 95.0328C760.137 97.5245 752.847 98.8822 743.744 98.8822V108.536C753.738 108.536 762.447 107.055 769.688 103.869L765.8 95.0328ZM743.744 98.8822H723.614V108.536H743.744V98.8822ZM718.787 103.709V149H728.441V103.709H718.787ZM723.614 144.173H695.549V153.827H723.614V144.173ZM700.376 149V6.5468H690.722V149H700.376ZM695.549 11.3738H738.711V1.71979H695.549V11.3738ZM743.55 81.4391C748.313 81.4391 752.656 80.6493 756.354 78.8005L752.037 70.1656C750.057 71.1555 747.303 71.7851 743.55 71.7851V81.4391ZM756.354 78.8005C759.775 77.0897 762.635 74.8004 764.72 71.8473L756.832 66.28C755.82 67.714 754.293 69.0376 752.037 70.1656L756.354 78.8005ZM764.61 71.9958C766.608 69.3832 768.078 66.5778 768.911 63.5813L759.609 60.9974C759.151 62.6462 758.299 64.3569 756.942 66.1315L764.61 71.9958ZM768.863 63.7429C769.751 60.9313 770.248 58.1764 770.248 55.5151H760.594C760.594 56.9829 760.317 58.7441 759.657 60.8358L768.863 63.7429ZM770.248 55.5151C770.248 53.4801 769.916 51.1656 769.359 48.6615L759.935 50.7557C760.411 52.8968 760.594 54.4533 760.594 55.5151H770.248ZM769.415 48.9557C768.923 45.8404 767.79 42.829 766.115 39.9352L757.76 44.7722C758.923 46.7816 759.597 48.6735 759.879 50.4614L769.415 48.9557ZM766.115 39.9352C764.184 36.6006 761.296 33.9723 757.732 31.9578L752.981 40.3623C755.353 41.7026 756.852 43.2034 757.76 44.7722L766.115 39.9352ZM757.812 32.0043C753.953 29.7237 749.119 28.8169 743.744 28.8169V38.4709C748.175 38.4709 751.083 39.2415 752.901 40.3157L757.812 32.0043ZM743.744 28.8169H723.614V38.4709H743.744V28.8169ZM718.787 33.6439V76.6121H728.441V33.6439H718.787ZM723.614 81.4391H743.55V71.7851H723.614V81.4391ZM765.809 96.6361L801.035 151.604L809.163 146.396L773.937 91.4272L765.809 96.6361ZM805.099 144.173H772.389V153.827H805.099V144.173ZM776.41 146.329L740.409 92.1349L732.368 97.4768L768.368 151.671L776.41 146.329ZM736.5 99.6316L769.984 98.8574L769.761 89.2059L736.277 89.9801L736.5 99.6316ZM884.948 40.9988L882.629 45.2326L887.04 47.648L889.273 43.1419L884.948 40.9988ZM868.302 33.6439L866.713 38.2016L866.729 38.2072L866.745 38.2127L868.302 33.6439ZM838.302 34.4181L835.524 30.4705L835.524 30.4705L838.302 34.4181ZM836.947 54.5473L833.452 57.8763L833.533 57.9616L833.618 58.0428L836.947 54.5473ZM847.205 61.5152L845.047 65.8326L845.073 65.8457L845.1 65.8586L847.205 61.5152ZM860.367 67.1281L862.062 62.6085L862.055 62.6058L862.048 62.6032L860.367 67.1281ZM872.561 72.7411L870.24 76.9735L870.32 77.0175L870.402 77.0585L872.561 72.7411ZM883.593 80.6767L880.18 84.0899L880.215 84.1247L880.25 84.1588L883.593 80.6767ZM891.335 92.4832L886.862 94.2968L886.87 94.3183L886.879 94.3398L891.335 92.4832ZM888.625 129.838L892.757 132.335L892.757 132.335L888.625 129.838ZM872.173 144.935L874.393 149.222L874.423 149.206L874.453 149.19L872.173 144.935ZM828.818 149L827.829 153.725L827.892 153.738L827.955 153.749L828.818 149ZM812.366 143.968L810.465 148.404L810.51 148.424L810.555 148.442L812.366 143.968ZM796.689 135.258L792.489 132.879L790.315 136.716L793.941 139.227L796.689 135.258ZM809.076 113.387L811.924 109.489L807.547 106.291L804.876 111.008L809.076 113.387ZM819.915 119.967L817.756 124.285L817.841 124.327L817.928 124.367L819.915 119.967ZM831.915 124.226L833.121 119.552L833.121 119.552L831.915 124.226ZM853.012 124.419L854.267 129.08L854.325 129.064L854.383 129.047L853.012 124.419ZM861.528 119.387L858.115 115.974L858.066 116.022L858.019 116.072L861.528 119.387ZM862.109 101.967L858.299 104.931L858.349 104.995L858.401 105.057L862.109 101.967ZM854.56 95.5801L852.002 99.6734L852.039 99.6966L852.077 99.7192L854.56 95.5801ZM844.302 90.5477L842.578 95.0564L842.59 95.061L844.302 90.5477ZM830.754 84.7412L828.692 89.106L828.692 89.106L830.754 84.7412ZM817.592 76.8057L814.562 80.5631L814.628 80.6163L814.696 80.6673L817.592 76.8057ZM807.721 64.9991L803.427 67.2041L803.463 67.2743L803.502 67.3433L807.721 64.9991ZM809.463 26.0954L805.355 23.5607L805.335 23.5927L805.316 23.6249L809.463 26.0954ZM825.141 11.7727L827.365 16.0566L827.397 16.0399L827.429 16.0227L825.141 11.7727ZM848.367 5.77261V0.945598H848.26L848.154 0.950289L848.367 5.77261ZM876.238 9.83717L874.516 14.3467L874.53 14.3518L874.543 14.3568L876.238 9.83717ZM895.593 19.5147L899.918 21.6578L901.813 17.8332L898.249 15.4843L895.593 19.5147ZM887.266 36.765C881.611 33.6679 875.808 31.1028 869.86 29.0751L866.745 38.2127C872.152 40.056 877.446 42.3941 882.629 45.2326L887.266 36.765ZM869.892 29.0862C863.931 27.0068 858.165 25.9136 852.625 25.9136V35.5676C856.891 35.5676 861.577 36.41 866.713 38.2016L869.892 29.0862ZM852.625 25.9136C845.971 25.9136 840.1 27.2507 835.524 30.4705L841.08 38.3657C843.472 36.6822 847.149 35.5676 852.625 35.5676V25.9136ZM835.524 30.4705C830.547 33.9728 828.249 39.2496 828.249 45.4505H837.903C837.903 41.8448 839.089 39.7666 841.08 38.3657L835.524 30.4705ZM828.249 45.4505C828.249 50.1919 830.123 54.3815 833.452 57.8763L840.443 51.2184C838.61 49.2937 837.903 47.4188 837.903 45.4505H828.249ZM833.618 58.0428C836.745 61.0207 840.585 63.6017 845.047 65.8326L849.364 57.1977C845.568 55.2996 842.569 53.2354 840.276 51.0519L833.618 58.0428ZM845.1 65.8586C849.499 67.9916 854.028 69.9229 858.686 71.6531L862.048 62.6032C857.673 60.9784 853.428 59.1678 849.311 57.1717L845.1 65.8586ZM858.672 71.6478C862.579 73.1128 866.434 74.8867 870.24 76.9735L874.882 68.5087C870.687 66.2084 866.413 64.2403 862.062 62.6085L858.672 71.6478ZM870.402 77.0585C874.072 78.8938 877.325 81.2353 880.18 84.0899L887.006 77.2634C883.409 73.6663 879.307 70.7174 874.719 68.4237L870.402 77.0585ZM880.25 84.1588C882.917 86.7189 885.143 90.0569 886.862 94.2968L895.808 90.6697C893.656 85.3611 890.721 80.8281 886.936 77.1945L880.25 84.1588ZM886.879 94.3398C888.499 98.2264 889.411 103.293 889.411 109.709H899.065C899.065 102.448 898.042 96.0305 895.791 90.6267L886.879 94.3398ZM889.411 109.709C889.411 116.054 887.781 121.901 884.494 127.342L892.757 132.335C896.953 125.389 899.065 117.816 899.065 109.709H889.411ZM884.494 127.342C881.257 132.7 876.459 137.163 869.894 140.681L874.453 149.19C882.339 144.966 888.509 139.365 892.757 132.335L884.494 127.342ZM869.954 140.649C863.589 143.945 855.496 145.721 845.463 145.721V155.375C856.592 155.375 866.307 153.41 874.393 149.222L869.954 140.649ZM845.463 145.721C840.352 145.721 835.092 145.235 829.682 144.251L827.955 153.749C833.899 154.83 839.736 155.375 845.463 155.375V145.721ZM829.807 144.275C824.548 143.175 819.339 141.583 814.177 139.493L810.555 148.442C816.232 150.74 821.991 152.503 827.829 153.725L829.807 144.275ZM814.268 139.531C809.156 137.34 804.213 134.596 799.436 131.289L793.941 139.227C799.229 142.887 804.737 145.95 810.465 148.404L814.268 139.531ZM800.889 137.637L813.276 115.766L804.876 111.008L792.489 132.879L800.889 137.637ZM806.228 117.284C809.809 119.901 813.654 122.234 817.756 124.285L822.074 115.65C818.434 113.83 815.052 111.776 811.924 109.489L806.228 117.284ZM817.928 124.367C822.164 126.28 826.425 127.794 830.709 128.899L833.121 119.552C829.405 118.593 825.665 117.268 821.902 115.568L817.928 124.367ZM830.709 128.899C835.016 130.011 839.105 130.601 842.947 130.601V120.947C840.08 120.947 836.814 120.505 833.121 119.552L830.709 128.899ZM842.947 130.601C846.741 130.601 850.517 130.09 854.267 129.08L851.757 119.758C848.797 120.555 845.864 120.947 842.947 120.947V130.601ZM854.383 129.047C858.569 127.807 862.183 125.724 865.037 122.701L858.019 116.072C856.486 117.695 854.423 118.967 851.641 119.791L854.383 129.047ZM864.941 122.8C868.388 119.353 869.839 114.772 869.839 109.709H860.185C860.185 112.905 859.313 114.775 858.115 115.974L864.941 122.8ZM869.839 109.709C869.839 105.664 868.425 102.006 865.817 98.877L858.401 105.057C859.664 106.573 860.185 108.077 860.185 109.709H869.839ZM865.919 99.0037C863.661 96.0999 860.645 93.6015 857.044 91.4409L852.077 99.7192C854.928 101.43 856.944 103.189 858.299 104.931L865.919 99.0037ZM857.119 91.4867C853.73 89.3689 850.023 87.5553 846.014 86.0345L842.59 95.061C846.065 96.3789 849.197 97.9202 852.002 99.6734L857.119 91.4867ZM846.026 86.0391C841.763 84.4091 837.36 82.5225 832.815 80.3764L828.692 89.106C833.438 91.347 838.067 93.3315 842.578 95.0564L846.026 86.0391ZM832.815 80.3764C828.466 78.3226 824.358 75.8463 820.488 72.944L814.696 80.6673C819.084 83.9586 823.751 86.7727 828.692 89.106L832.815 80.3764ZM820.622 73.0482C817.123 70.2258 814.23 66.7757 811.941 62.6549L803.502 67.3433C806.374 72.5128 810.062 76.9338 814.562 80.5631L820.622 73.0482ZM812.015 62.7941C809.997 58.8633 808.871 53.856 808.871 47.5795H799.217C799.217 54.9806 800.542 61.5863 803.427 67.2041L812.015 62.7941ZM808.871 47.5795C808.871 40.0417 810.513 33.7646 813.61 28.5659L805.316 23.6249C801.187 30.5554 799.217 38.6011 799.217 47.5795H808.871ZM813.571 28.6301C816.827 23.3539 821.381 19.1639 827.365 16.0566L822.916 7.48871C815.481 11.3492 809.584 16.7078 805.355 23.5607L813.571 28.6301ZM827.429 16.0227C833.408 12.8033 840.421 10.9549 848.579 10.5949L848.154 0.950289C838.764 1.36454 830.293 3.51613 822.852 7.52262L827.429 16.0227ZM848.367 10.5996C859.533 10.5996 868.175 11.9256 874.516 14.3467L877.96 5.32768C870.107 2.32934 860.168 0.945598 848.367 0.945598V10.5996ZM874.543 14.3568C881.476 16.9566 887.598 20.0261 892.937 23.5451L898.249 15.4843C892.234 11.5193 885.452 8.1372 877.933 5.31749L874.543 14.3568ZM891.268 17.3716L880.623 38.8557L889.273 43.1419L899.918 21.6578L891.268 17.3716ZM902.369 6.5468V1.71979H897.542V6.5468H902.369ZM999.531 6.5468H1004.36V1.71979H999.531V6.5468ZM999.531 33.6439V38.4709H1004.36V33.6439H999.531ZM930.434 33.6439V28.8169H925.607V33.6439H930.434ZM930.434 64.0313H925.607V68.8583H930.434V64.0313ZM991.596 64.0313H996.423V59.2043H991.596V64.0313ZM991.596 91.1284V95.9554H996.423V91.1284H991.596ZM930.434 91.1284V86.3014H925.607V91.1284H930.434ZM930.434 121.903H925.607V126.73H930.434V121.903ZM1002.24 121.903H1007.07V117.076H1002.24V121.903ZM1002.24 149V153.827H1007.07V149H1002.24ZM902.369 149H897.542V153.827H902.369V149ZM902.369 11.3738H999.531V1.71979H902.369V11.3738ZM994.704 6.5468V33.6439H1004.36V6.5468H994.704ZM999.531 28.8169H930.434V38.4709H999.531V28.8169ZM925.607 33.6439V64.0313H935.261V33.6439H925.607ZM930.434 68.8583H991.596V59.2043H930.434V68.8583ZM986.769 64.0313V91.1284H996.423V64.0313H986.769ZM991.596 86.3014H930.434V95.9554H991.596V86.3014ZM925.607 91.1284V121.903H935.261V91.1284H925.607ZM930.434 126.73H1002.24V117.076H930.434V126.73ZM997.414 121.903V149H1007.07V121.903H997.414ZM1002.24 144.173H902.369V153.827H1002.24V144.173ZM907.196 149V6.5468H897.542V149H907.196Z" fill="#E8DAFF"/>
<path d="M72.9113 10.6519C84.1501 10.6519 93.6599 12.5662 101.441 16.3949C109.221 20.1 115.15 25.4106 119.225 32.3268C123.301 39.1195 125.339 47.209 125.339 56.5953C125.339 62.153 124.474 67.7724 122.745 73.4536C121.139 79.0112 118.484 84.0749 114.779 88.6445C111.197 93.2141 106.319 96.9193 100.144 99.7598C94.0921 102.477 86.6202 103.835 77.7279 103.835H58.4613V147H31.5993V10.6519H72.9113ZM77.5426 77.7144C81.6183 77.7144 85.0146 77.0352 87.7317 75.6766C90.4488 74.1946 92.5483 72.4038 94.0304 70.3042C95.6359 68.0811 96.7475 65.7963 97.365 63.4498C98.106 61.1032 98.4765 59.0654 98.4765 57.3363C98.4765 55.9778 98.2295 54.187 97.7355 51.9639C97.365 49.6174 96.5005 47.2708 95.1419 44.9242C93.7834 42.5776 91.6838 40.6016 88.8432 38.996C86.1261 37.3905 82.421 36.5877 77.7279 36.5877H58.4613V77.7144H77.5426ZM103.575 147L165.08 5.27953H166.562L228.067 147H196.944L157.67 47.3325L177.122 33.9941L130.067 147H103.575ZM145.628 97.722H186.57L196.018 120.323H137.292L145.628 97.722ZM353.353 152.558L249.981 59.1889L257.947 63.635L258.503 147H231.27V5.27953H232.381L333.531 98.2778L327.603 95.6842L327.047 10.6519H354.094V152.558H353.353ZM357.158 147L418.663 5.27953H420.145L481.65 147H450.527L411.253 47.3325L430.705 33.9941L383.65 147H357.158ZM399.211 97.722H440.153L449.601 120.323H390.875L399.211 97.722ZM484.973 10.6519L524.803 108.837L509.242 105.688L545.366 10.6519H577.23L514.984 153.299L452.739 10.6519H484.973ZM584.146 10.6519H677.144V36.5877H611.008V65.6728H669.548V91.6086H611.008V121.064H679.737V147H584.146V10.6519ZM732.168 10.6519C740.689 10.6519 748.285 11.7635 754.954 13.9865C761.623 16.0861 767.181 19.1737 771.627 23.2493C776.197 27.2014 779.655 32.0181 782.001 37.6992C784.348 43.2569 785.521 49.5556 785.521 56.5953C785.521 62.153 784.657 67.7106 782.928 73.2683C781.322 78.826 778.605 83.8896 774.776 88.4593C771.071 93.0289 766.131 96.734 759.956 99.5746C753.781 102.292 746.124 103.65 736.984 103.65H717.718V147H690.856V10.6519H732.168ZM736.799 77.7144C740.875 77.7144 744.271 77.0352 746.988 75.6766C749.705 74.3181 751.805 72.589 753.287 70.4895C754.892 68.3899 756.004 66.2286 756.621 64.0055C757.362 61.659 757.733 59.4976 757.733 57.5216C757.733 56.0395 757.486 54.187 756.992 51.9639C756.621 49.6174 755.757 47.2708 754.398 44.9242C753.04 42.5776 750.94 40.6016 748.1 38.996C745.382 37.3905 741.677 36.5877 736.984 36.5877H717.718V77.7144H736.799ZM761.994 94.3874L795.71 147H764.402L729.945 95.1285L761.994 94.3874ZM873.989 43.6274C868.802 40.7868 863.492 38.4403 858.057 36.5877C852.747 34.7352 847.745 33.8089 843.052 33.8089C837.247 33.8089 832.677 34.9822 829.343 37.3287C826.008 39.6753 824.341 43.1952 824.341 47.8883C824.341 51.0994 825.576 54.0017 828.046 56.5953C830.64 59.0654 833.912 61.2884 837.865 63.2645C841.94 65.2406 846.139 67.0314 850.462 68.6369C854.414 70.119 858.304 71.9098 862.133 74.0093C866.085 75.9854 869.605 78.5172 872.693 81.6048C875.78 84.5689 878.25 88.3358 880.103 92.9054C881.955 97.3515 882.882 102.847 882.882 109.393C882.882 116.309 881.091 122.732 877.509 128.66C873.928 134.588 868.679 139.405 861.762 143.11C854.846 146.691 846.325 148.482 836.197 148.482C831.01 148.482 825.699 147.988 820.265 147C814.955 145.888 809.706 144.283 804.519 142.183C799.331 139.96 794.329 137.181 789.513 133.847L801.369 112.913C804.58 115.26 808.038 117.359 811.743 119.212C815.572 120.941 819.401 122.299 823.229 123.287C827.058 124.275 830.578 124.769 833.789 124.769C837 124.769 840.211 124.337 843.422 123.473C846.757 122.485 849.474 120.879 851.573 118.656C853.796 116.433 854.908 113.345 854.908 109.393C854.908 106.676 853.982 104.206 852.129 101.983C850.4 99.7598 847.992 97.722 844.904 95.8695C841.94 94.0169 838.667 92.4114 835.086 91.0528C830.887 89.4473 826.564 87.5947 822.118 85.4952C817.672 83.3956 813.473 80.8638 809.52 77.8997C805.692 74.8121 802.542 71.0452 800.072 66.5991C797.726 62.0295 796.553 56.4718 796.553 49.9261C796.553 42.0219 798.282 35.1674 801.74 29.3627C805.321 23.5581 810.323 18.9884 816.745 15.6538C823.168 12.1957 830.578 10.2814 838.976 9.91092C849.968 9.91092 858.86 11.2077 865.653 13.8013C872.569 16.3949 878.744 19.4825 884.178 23.0641L873.989 43.6274ZM892.516 10.6519H985.515V36.5877H919.378V65.6728H977.919V91.6086H919.378V121.064H988.108V147H892.516V10.6519Z" fill="url(#paint1_linear_5_3567)"/>
<path d="M101.441 16.3949L99.4008 20.5403L99.4274 20.5534L99.4543 20.5662L101.441 16.3949ZM119.225 32.3268L115.245 34.6724L115.254 34.6882L115.263 34.7039L119.225 32.3268ZM122.745 73.4536L118.325 72.1084L118.315 72.1398L118.306 72.1713L122.745 73.4536ZM114.779 88.6445L111.19 85.7347L111.166 85.7644L111.143 85.7944L114.779 88.6445ZM100.144 99.7598L102.036 103.975L102.055 103.966L102.075 103.957L100.144 99.7598ZM58.4613 103.835V99.2153H53.8412V103.835H58.4613ZM58.4613 147V151.62H63.0815V147H58.4613ZM31.5993 147H26.9791V151.62H31.5993V147ZM31.5993 10.6519V6.03179H26.9791V10.6519H31.5993ZM87.7317 75.6766L89.7979 79.809L89.8717 79.7721L89.9441 79.7326L87.7317 75.6766ZM94.0304 70.3042L90.2849 67.5992L90.2703 67.6194L90.2559 67.6399L94.0304 70.3042ZM97.365 63.4498L92.9593 62.0585L92.9255 62.1655L92.897 62.274L97.365 63.4498ZM97.7355 51.9639L93.1719 52.6845L93.1943 52.8262L93.2254 52.9662L97.7355 51.9639ZM95.1419 44.9242L91.1435 47.2391L91.1435 47.2391L95.1419 44.9242ZM88.8432 38.996L86.4928 42.9736L86.5311 42.9963L86.5699 43.0182L88.8432 38.996ZM58.4613 36.5877V31.9676H53.8412V36.5877H58.4613ZM58.4613 77.7144H53.8412V82.3346H58.4613V77.7144ZM72.9113 15.2721C83.6447 15.2721 92.4139 17.1023 99.4008 20.5403L103.48 12.2494C94.9058 8.03015 84.6555 6.03179 72.9113 6.03179V15.2721ZM99.4543 20.5662C106.467 23.9058 111.672 28.6092 115.245 34.6724L123.206 29.9812C118.627 22.2121 111.975 16.2942 103.427 12.2235L99.4543 20.5662ZM115.263 34.7039C118.834 40.6555 120.718 47.8903 120.718 56.5953H129.959C129.959 46.5278 127.767 37.5835 123.187 29.9498L115.263 34.7039ZM120.718 56.5953C120.718 61.667 119.93 66.8334 118.325 72.1084L127.165 74.7988C129.018 68.7114 129.959 62.639 129.959 56.5953H120.718ZM118.306 72.1713C116.875 77.1248 114.513 81.6369 111.19 85.7347L118.368 91.5543C122.455 86.5128 125.404 80.8976 127.184 74.7358L118.306 72.1713ZM111.143 85.7944C108.086 89.6945 103.835 92.9766 98.213 95.5625L102.075 103.957C108.803 100.862 114.309 96.7337 118.415 91.4946L111.143 85.7944ZM98.2515 95.545C92.9608 97.9204 86.1783 99.2153 77.7279 99.2153V108.456C87.062 108.456 95.2234 107.033 102.036 103.975L98.2515 95.545ZM77.7279 99.2153H58.4613V108.456H77.7279V99.2153ZM53.8412 103.835V147H63.0815V103.835H53.8412ZM58.4613 142.38H31.5993V151.62H58.4613V142.38ZM36.2194 147V10.6519H26.9791V147H36.2194ZM31.5993 15.2721H72.9113V6.03179H31.5993V15.2721ZM77.5426 82.3346C82.1018 82.3346 86.2586 81.5786 89.7979 79.809L85.6655 71.5442C83.7706 72.4917 81.1348 73.0943 77.5426 73.0943V82.3346ZM89.9441 79.7326C93.1563 77.9805 95.8405 75.7515 97.8049 72.9686L90.2559 67.6399C89.2562 69.0561 87.7413 70.4087 85.5193 71.6206L89.9441 79.7326ZM97.7758 73.0093C99.6713 70.3848 101.053 67.5888 101.833 64.6256L92.897 62.274C92.4417 64.0038 91.6006 65.7775 90.2849 67.5992L97.7758 73.0093ZM101.771 64.841C102.599 62.2183 103.097 59.6905 103.097 57.3363H93.8564C93.8564 58.4403 93.6131 59.9881 92.9593 62.0585L101.771 64.841ZM103.097 57.3363C103.097 55.4906 102.771 53.3249 102.246 50.9617L93.2254 52.9662C93.6882 55.0491 93.8564 56.465 93.8564 57.3363H103.097ZM102.299 51.2434C101.828 48.2615 100.744 45.3792 99.1403 42.6094L91.1435 47.2391C92.257 49.1624 92.9017 50.9732 93.1719 52.6845L102.299 51.2434ZM99.1403 42.6094C97.2925 39.4178 94.528 36.9021 91.1166 34.9739L86.5699 43.0182C88.8396 44.3011 90.2742 45.7375 91.1435 47.2391L99.1403 42.6094ZM91.1936 35.0184C87.4995 32.8356 82.8731 31.9676 77.7279 31.9676V41.2079C81.969 41.2079 84.7528 41.9454 86.4928 42.9736L91.1936 35.0184ZM77.7279 31.9676H58.4613V41.2079H77.7279V31.9676ZM53.8412 36.5877V77.7144H63.0815V36.5877H53.8412ZM58.4613 82.3346H77.5426V73.0943H58.4613V82.3346ZM103.575 147L99.3372 145.161L96.5338 151.62H103.575V147ZM165.08 5.27953V0.659386H162.049L160.842 3.44019L165.08 5.27953ZM166.562 5.27953L170.8 3.44019L169.594 0.659386H166.562V5.27953ZM228.067 147V151.62H235.109L232.305 145.161L228.067 147ZM196.944 147L192.646 148.694L193.799 151.62H196.944V147ZM157.67 47.3325L155.057 43.5222L152.023 45.603L153.372 49.0263L157.67 47.3325ZM177.122 33.9941L181.387 35.7701L187.391 21.3502L174.509 30.1838L177.122 33.9941ZM130.067 147V151.62H133.148L134.332 148.776L130.067 147ZM145.628 97.722V93.1019H142.408L141.294 96.1232L145.628 97.722ZM186.57 97.722L190.833 95.9401L189.646 93.1019H186.57V97.722ZM196.018 120.323V124.943H202.957L200.281 118.541L196.018 120.323ZM137.292 120.323L132.957 118.724L130.663 124.943H137.292V120.323ZM107.814 148.839L169.318 7.11886L160.842 3.44019L99.3372 145.161L107.814 148.839ZM165.08 9.89967H166.562V0.659386H165.08V9.89967ZM162.324 7.11886L223.829 148.839L232.305 145.161L170.8 3.44019L162.324 7.11886ZM228.067 142.38H196.944V151.62H228.067V142.38ZM201.243 145.306L161.968 45.6387L153.372 49.0263L192.646 148.694L201.243 145.306ZM160.283 51.1429L179.735 37.8045L174.509 30.1838L155.057 43.5222L160.283 51.1429ZM172.857 32.2182L125.802 145.224L134.332 148.776L181.387 35.7701L172.857 32.2182ZM130.067 142.38H103.575V151.62H130.067V142.38ZM145.628 102.342H186.57V93.1019H145.628V102.342ZM182.307 99.504L191.755 122.105L200.281 118.541L190.833 95.9401L182.307 99.504ZM196.018 115.703H137.292V124.943H196.018V115.703ZM141.627 121.922L149.963 99.3209L141.294 96.1232L132.957 118.724L141.627 121.922ZM353.353 152.558L350.257 155.986L351.576 157.178H353.353V152.558ZM249.981 59.1889L252.232 55.1546L246.884 62.6175L249.981 59.1889ZM257.947 63.635L262.567 63.6042L262.549 60.9126L260.198 59.6007L257.947 63.635ZM258.503 147V151.62H263.154L263.123 146.969L258.503 147ZM231.27 147H226.65V151.62H231.27V147ZM231.27 5.27953V0.659386H226.65V5.27953H231.27ZM232.381 5.27953L235.509 1.87843L234.183 0.659386H232.381V5.27953ZM333.531 98.2778L331.679 102.511L336.658 94.8767L333.531 98.2778ZM327.603 95.6842L322.983 95.7144L323.002 98.7145L325.751 99.917L327.603 95.6842ZM327.047 10.6519V6.03179H322.397L322.427 10.6821L327.047 10.6519ZM354.094 10.6519H358.715V6.03179H354.094V10.6519ZM354.094 152.558V157.178H358.715V152.558H354.094ZM356.45 149.129L253.078 55.7603L246.884 62.6175L350.257 155.986L356.45 149.129ZM247.729 63.2232L255.695 67.6693L260.198 59.6007L252.232 55.1546L247.729 63.2232ZM253.327 63.6658L253.882 147.031L263.123 146.969L262.567 63.6042L253.327 63.6658ZM258.503 142.38H231.27V151.62H258.503V142.38ZM235.89 147V5.27953H226.65V147H235.89ZM231.27 9.89967H232.381V0.659386H231.27V9.89967ZM229.254 8.68063L330.404 101.679L336.658 94.8767L235.509 1.87843L229.254 8.68063ZM335.383 94.045L329.455 91.4514L325.751 99.917L331.679 102.511L335.383 94.045ZM332.223 95.654L331.667 10.6217L322.427 10.6821L322.983 95.7144L332.223 95.654ZM327.047 15.2721H354.094V6.03179H327.047V15.2721ZM349.474 10.6519V152.558H358.715V10.6519H349.474ZM354.094 147.938H353.353V157.178H354.094V147.938ZM357.158 147L352.92 145.161L350.117 151.62H357.158V147ZM418.663 5.27953V0.659386H415.632L414.425 3.44019L418.663 5.27953ZM420.145 5.27953L424.383 3.44019L423.177 0.659386H420.145V5.27953ZM481.65 147V151.62H488.692L485.888 145.161L481.65 147ZM450.527 147L446.229 148.694L447.382 151.62H450.527V147ZM411.253 47.3325L408.64 43.5222L405.606 45.603L406.954 49.0263L411.253 47.3325ZM430.705 33.9941L434.97 35.7701L440.974 21.3502L428.092 30.1838L430.705 33.9941ZM383.65 147V151.62H386.731L387.915 148.776L383.65 147ZM399.211 97.722V93.1019H395.991L394.877 96.1232L399.211 97.722ZM440.153 97.722L444.415 95.9401L443.229 93.1019H440.153V97.722ZM449.601 120.323V124.943H456.54L453.863 118.541L449.601 120.323ZM390.875 120.323L386.54 118.724L384.246 124.943H390.875V120.323ZM361.397 148.839L422.901 7.11886L414.425 3.44019L352.92 145.161L361.397 148.839ZM418.663 9.89967H420.145V0.659386H418.663V9.89967ZM415.907 7.11886L477.412 148.839L485.888 145.161L424.383 3.44019L415.907 7.11886ZM481.65 142.38H450.527V151.62H481.65V142.38ZM454.826 145.306L415.551 45.6387L406.954 49.0263L446.229 148.694L454.826 145.306ZM413.866 51.1429L433.318 37.8045L428.092 30.1838L408.64 43.5222L413.866 51.1429ZM426.44 32.2182L379.385 145.224L387.915 148.776L434.97 35.7701L426.44 32.2182ZM383.65 142.38H357.158V151.62H383.65V142.38ZM399.211 102.342H440.153V93.1019H399.211V102.342ZM435.89 99.504L445.338 122.105L453.863 118.541L444.415 95.9401L435.89 99.504ZM449.601 115.703H390.875V124.943H449.601V115.703ZM395.209 121.922L403.546 99.3209L394.877 96.1232L386.54 118.724L395.209 121.922ZM484.973 10.6519L489.254 8.91519L488.085 6.03179H484.973V10.6519ZM524.803 108.837L523.887 113.366L532.318 115.072L529.084 107.101L524.803 108.837ZM509.242 105.688L504.923 104.046L502.988 109.136L508.325 110.216L509.242 105.688ZM545.366 10.6519V6.03179H542.18L541.048 9.01034L545.366 10.6519ZM577.23 10.6519L581.465 12.4997L584.287 6.03179H577.23V10.6519ZM514.984 153.299L510.75 155.146L514.984 164.851L519.219 155.146L514.984 153.299ZM452.739 10.6519V6.03179H445.682L448.504 12.4997L452.739 10.6519ZM480.692 12.3887L520.522 110.574L529.084 107.101L489.254 8.91519L480.692 12.3887ZM525.719 104.309L510.158 101.16L508.325 110.216L523.887 113.366L525.719 104.309ZM513.56 107.33L549.685 12.2935L541.048 9.01034L504.923 104.046L513.56 107.33ZM545.366 15.2721H577.23V6.03179H545.366V15.2721ZM572.996 8.80413L510.75 151.451L519.219 155.146L581.465 12.4997L572.996 8.80413ZM519.219 151.451L456.973 8.80413L448.504 12.4997L510.75 155.146L519.219 151.451ZM452.739 15.2721H484.973V6.03179H452.739V15.2721ZM584.146 10.6519V6.03179H579.525V10.6519H584.146ZM677.144 10.6519H681.764V6.03179H677.144V10.6519ZM677.144 36.5877V41.2079H681.764V36.5877H677.144ZM611.008 36.5877V31.9676H606.387V36.5877H611.008ZM611.008 65.6728H606.387V70.293H611.008V65.6728ZM669.548 65.6728H674.168V61.0527H669.548V65.6728ZM669.548 91.6086V96.2287H674.168V91.6086H669.548ZM611.008 91.6086V86.9885H606.387V91.6086H611.008ZM611.008 121.064H606.387V125.684H611.008V121.064ZM679.737 121.064H684.358V116.444H679.737V121.064ZM679.737 147V151.62H684.358V147H679.737ZM584.146 147H579.525V151.62H584.146V147ZM584.146 15.2721H677.144V6.03179H584.146V15.2721ZM672.524 10.6519V36.5877H681.764V10.6519H672.524ZM677.144 31.9676H611.008V41.2079H677.144V31.9676ZM606.387 36.5877V65.6728H615.628V36.5877H606.387ZM611.008 70.293H669.548V61.0527H611.008V70.293ZM664.928 65.6728V91.6086H674.168V65.6728H664.928ZM669.548 86.9885H611.008V96.2287H669.548V86.9885ZM606.387 91.6086V121.064H615.628V91.6086H606.387ZM611.008 125.684H679.737V116.444H611.008V125.684ZM675.117 121.064V147H684.358V121.064H675.117ZM679.737 142.38H584.146V151.62H679.737V142.38ZM588.766 147V10.6519H579.525V147H588.766ZM754.954 13.9865L753.493 18.3696L753.53 18.3818L753.567 18.3935L754.954 13.9865ZM771.627 23.2493L768.505 26.6551L768.554 26.7002L768.605 26.7438L771.627 23.2493ZM782.001 37.6992L777.731 39.463L777.738 39.4797L777.745 39.4963L782.001 37.6992ZM782.928 73.2683L778.516 71.8958L778.502 71.9408L778.489 71.986L782.928 73.2683ZM774.776 88.4593L771.235 85.4921L771.211 85.5206L771.188 85.5495L774.776 88.4593ZM759.956 99.5746L761.817 103.803L761.852 103.788L761.887 103.772L759.956 99.5746ZM717.718 103.65V99.0301H713.098V103.65H717.718ZM717.718 147V151.62H722.338V147H717.718ZM690.856 147H686.235V151.62H690.856V147ZM690.856 10.6519V6.03179H686.235V10.6519H690.856ZM746.988 75.6766L749.054 79.809L749.054 79.809L746.988 75.6766ZM753.287 70.4895L749.617 67.683L749.563 67.753L749.512 67.8251L753.287 70.4895ZM756.621 64.0055L752.216 62.6143L752.191 62.6912L752.17 62.769L756.621 64.0055ZM756.992 51.9639L752.428 52.6845L752.451 52.8262L752.482 52.9662L756.992 51.9639ZM754.398 44.9242L750.4 47.2391L750.4 47.2391L754.398 44.9242ZM748.1 38.996L745.749 42.9736L745.787 42.9963L745.826 43.0182L748.1 38.996ZM717.718 36.5877V31.9676H713.098V36.5877H717.718ZM717.718 77.7144H713.098V82.3346H717.718V77.7144ZM761.994 94.3874L765.884 91.8946L764.483 89.7085L761.887 89.7685L761.994 94.3874ZM795.71 147V151.62H804.158L799.6 144.507L795.71 147ZM764.402 147L760.554 149.556L761.925 151.62H764.402V147ZM729.945 95.1285L729.838 90.5096L721.458 90.7033L726.096 97.6849L729.945 95.1285ZM732.168 15.2721C740.295 15.2721 747.383 16.3328 753.493 18.3696L756.415 9.60348C749.187 7.19414 741.084 6.03179 732.168 6.03179V15.2721ZM753.567 18.3935C759.694 20.3223 764.63 23.1032 768.505 26.6551L774.749 19.8436C769.731 15.2442 763.553 11.8499 756.341 9.57962L753.567 18.3935ZM768.605 26.7438C772.619 30.2159 775.655 34.4362 777.731 39.463L786.272 35.9355C783.655 29.5999 779.774 24.187 774.649 19.7548L768.605 26.7438ZM777.745 39.4963C779.815 44.3985 780.901 50.0711 780.901 56.5953H790.141C790.141 49.0401 788.881 42.1153 786.258 35.9021L777.745 39.4963ZM780.901 56.5953C780.901 61.666 780.113 66.7614 778.516 71.8958L787.339 74.6408C789.2 68.6599 790.141 62.64 790.141 56.5953H780.901ZM778.489 71.986C777.067 76.9067 774.663 81.4001 771.235 85.4921L778.318 91.4264C782.547 86.3792 785.577 80.7453 787.366 74.5506L778.489 71.986ZM771.188 85.5495C767.994 89.4887 763.656 92.7869 758.025 95.3772L761.887 103.772C768.606 100.681 774.149 96.569 778.365 91.369L771.188 85.5495ZM758.095 95.3457C752.675 97.7306 745.697 99.0301 736.984 99.0301V108.27C746.55 108.27 754.886 106.853 761.817 103.803L758.095 95.3457ZM736.984 99.0301H717.718V108.27H736.984V99.0301ZM713.098 103.65V147H722.338V103.65H713.098ZM717.718 142.38H690.856V151.62H717.718V142.38ZM695.476 147V10.6519H686.235V147H695.476ZM690.856 15.2721H732.168V6.03179H690.856V15.2721ZM736.799 82.3346C741.358 82.3346 745.515 81.5786 749.054 79.809L744.922 71.5442C743.027 72.4917 740.391 73.0943 736.799 73.0943V82.3346ZM749.054 79.809C752.329 78.1716 755.066 75.9804 757.061 73.1538L749.512 67.8251C748.543 69.1976 747.081 70.4646 744.922 71.5442L749.054 79.809ZM756.957 73.296C758.869 70.7954 760.276 68.1102 761.073 65.2421L752.17 62.769C751.731 64.347 750.916 65.9844 749.617 67.683L756.957 73.296ZM761.027 65.3968C761.877 62.7057 762.353 60.0689 762.353 57.5216H753.113C753.113 58.9264 752.848 60.6122 752.216 62.6143L761.027 65.3968ZM762.353 57.5216C762.353 55.5738 762.035 53.3585 761.502 50.9617L752.482 52.9662C752.937 55.0155 753.113 56.5053 753.113 57.5216H762.353ZM761.555 51.2434C761.085 48.2615 760 45.3792 758.397 42.6094L750.4 47.2391C751.513 49.1624 752.158 50.9732 752.428 52.6845L761.555 51.2434ZM758.397 42.6094C756.549 39.4178 753.784 36.9021 750.373 34.9739L745.826 43.0182C748.096 44.3011 749.531 45.7375 750.4 47.2391L758.397 42.6094ZM750.45 35.0184C746.756 32.8356 742.129 31.9676 736.984 31.9676V41.2079C741.225 41.2079 744.009 41.9454 745.749 42.9736L750.45 35.0184ZM736.984 31.9676H717.718V41.2079H736.984V31.9676ZM713.098 36.5877V77.7144H722.338V36.5877H713.098ZM717.718 82.3346H736.799V73.0943H717.718V82.3346ZM758.104 96.8803L791.82 149.493L799.6 144.507L765.884 91.8946L758.104 96.8803ZM795.71 142.38H764.402V151.62H795.71V142.38ZM768.25 144.444L733.793 92.572L726.096 97.6849L760.554 149.556L768.25 144.444ZM730.051 99.7474L762.101 99.0063L761.887 89.7685L729.838 90.5096L730.051 99.7474ZM873.989 43.6274L871.77 47.6797L875.992 49.9917L878.129 45.6787L873.989 43.6274ZM858.057 36.5877L856.536 40.9501L856.551 40.9554L856.567 40.9607L858.057 36.5877ZM829.343 37.3287L826.684 33.5504L826.684 33.5504L829.343 37.3287ZM828.046 56.5953L824.7 59.7816L824.778 59.8632L824.86 59.9409L828.046 56.5953ZM837.865 63.2645L835.798 67.3969L835.824 67.4095L835.849 67.4218L837.865 63.2645ZM850.462 68.6369L852.084 64.3109L852.077 64.3084L852.071 64.3059L850.462 68.6369ZM862.133 74.0093L859.911 78.0603L859.988 78.1025L860.067 78.1417L862.133 74.0093ZM872.693 81.6048L869.426 84.8717L869.459 84.9051L869.493 84.9377L872.693 81.6048ZM880.103 92.9054L875.821 94.6412L875.829 94.6618L875.838 94.6824L880.103 92.9054ZM877.509 128.66L881.464 131.049L881.464 131.049L877.509 128.66ZM861.762 143.11L863.887 147.212L863.916 147.197L863.944 147.182L861.762 143.11ZM820.265 147L819.319 151.522L819.379 151.535L819.439 151.546L820.265 147ZM804.519 142.183L802.699 146.43L802.742 146.448L802.785 146.466L804.519 142.183ZM789.513 133.847L785.493 131.57L783.412 135.243L786.883 137.646L789.513 133.847ZM801.369 112.913L804.095 109.183L799.906 106.121L797.349 110.636L801.369 112.913ZM811.743 119.212L809.677 123.344L809.759 123.385L809.842 123.422L811.743 119.212ZM823.229 123.287L824.384 118.814L824.384 118.814L823.229 123.287ZM843.422 123.473L844.623 127.934L844.679 127.919L844.735 127.902L843.422 123.473ZM851.573 118.656L848.306 115.389L848.26 115.436L848.215 115.484L851.573 118.656ZM852.129 101.983L848.482 104.819L848.53 104.881L848.58 104.941L852.129 101.983ZM844.904 95.8695L842.456 99.7873L842.491 99.8096L842.527 99.8312L844.904 95.8695ZM835.086 91.0528L833.436 95.3683L833.447 95.3727L835.086 91.0528ZM822.118 85.4952L820.145 89.6729L820.145 89.6729L822.118 85.4952ZM809.52 77.8997L806.62 81.4961L806.683 81.5471L806.748 81.5958L809.52 77.8997ZM800.072 66.5991L795.962 68.7096L795.997 68.7768L796.034 68.8428L800.072 66.5991ZM801.74 29.3627L797.808 26.9367L797.789 26.9673L797.771 26.9981L801.74 29.3627ZM816.745 15.6538L818.874 19.7542L818.905 19.7382L818.936 19.7217L816.745 15.6538ZM838.976 9.91092V5.29078H838.874L838.772 5.29527L838.976 9.91092ZM865.653 13.8013L864.005 18.1175L864.018 18.1224L864.031 18.1273L865.653 13.8013ZM884.178 23.0641L888.318 25.1153L890.132 21.4547L886.721 19.2064L884.178 23.0641ZM876.208 39.5751C870.795 36.6107 865.241 34.1555 859.548 32.2147L856.567 40.9607C861.742 42.725 866.809 44.963 871.77 47.6797L876.208 39.5751ZM859.579 32.2254C853.874 30.2351 848.354 29.1887 843.052 29.1887V38.429C847.135 38.429 851.62 39.2353 856.536 40.9501L859.579 32.2254ZM843.052 29.1887C836.683 29.1887 831.063 30.4685 826.684 33.5504L832.002 41.1071C834.291 39.4958 837.811 38.429 843.052 38.429V29.1887ZM826.684 33.5504C821.92 36.9026 819.721 41.9532 819.721 47.8883H828.961C828.961 44.4371 830.096 42.4481 832.002 41.1071L826.684 33.5504ZM819.721 47.8883C819.721 52.4265 821.515 56.4366 824.7 59.7816L831.392 53.409C829.637 51.5668 828.961 49.7723 828.961 47.8883H819.721ZM824.86 59.9409C827.852 62.7912 831.528 65.2616 835.798 67.3969L839.931 59.1321C836.297 57.3153 833.427 55.3396 831.232 53.2497L824.86 59.9409ZM835.849 67.4218C840.06 69.4634 844.395 71.3119 848.853 72.968L852.071 64.3059C847.884 62.7508 843.821 61.0178 839.88 59.1072L835.849 67.4218ZM848.84 72.9629C852.579 74.3651 856.269 76.0629 859.911 78.0603L864.355 69.9583C860.34 67.7566 856.249 65.8729 852.084 64.3109L848.84 72.9629ZM860.067 78.1417C863.58 79.8984 866.693 82.1395 869.426 84.8717L875.959 78.3379C872.517 74.8949 868.59 72.0724 864.199 69.8769L860.067 78.1417ZM869.493 84.9377C872.045 87.388 874.176 90.583 875.821 94.6412L884.384 91.1696C882.325 86.0885 879.515 81.7497 875.892 78.2719L869.493 84.9377ZM875.838 94.6824C877.388 98.4025 878.261 103.252 878.261 109.393H887.502C887.502 102.443 886.523 96.3006 884.368 91.1284L875.838 94.6824ZM878.261 109.393C878.261 115.466 876.702 121.062 873.555 126.271L881.464 131.049C885.48 124.401 887.502 117.153 887.502 109.393H878.261ZM873.555 126.271C870.457 131.398 865.865 135.671 859.581 139.037L863.944 147.182C871.493 143.138 877.398 137.778 881.464 131.049L873.555 126.271ZM859.638 139.007C853.546 142.162 845.8 143.862 836.197 143.862V153.102C846.849 153.102 856.147 151.221 863.887 147.212L859.638 139.007ZM836.197 143.862C831.304 143.862 826.271 143.396 821.092 142.454L819.439 151.546C825.128 152.58 830.716 153.102 836.197 153.102V143.862ZM821.212 142.478C816.178 141.424 811.192 139.9 806.252 137.901L802.785 146.466C808.219 148.665 813.731 150.353 819.319 151.522L821.212 142.478ZM806.338 137.937C801.446 135.84 796.715 133.213 792.143 130.048L786.883 137.646C791.944 141.149 797.217 144.08 802.699 146.43L806.338 137.937ZM793.533 136.124L805.389 115.19L797.349 110.636L785.493 131.57L793.533 136.124ZM798.643 116.643C802.071 119.148 805.751 121.381 809.677 123.344L813.81 115.079C810.326 113.337 807.089 111.371 804.095 109.183L798.643 116.643ZM809.842 123.422C813.897 125.254 817.975 126.703 822.075 127.761L824.384 118.814C820.827 117.896 817.248 116.628 813.645 115.001L809.842 123.422ZM822.075 127.761C826.197 128.825 830.111 129.389 833.789 129.389V120.149C831.045 120.149 827.919 119.726 824.384 118.814L822.075 127.761ZM833.789 129.389C837.42 129.389 841.035 128.9 844.623 127.934L842.221 119.011C839.388 119.774 836.58 120.149 833.789 120.149V129.389ZM844.735 127.902C848.741 126.715 852.2 124.721 854.932 121.828L848.215 115.484C846.748 117.037 844.772 118.254 842.11 119.043L844.735 127.902ZM854.84 121.923C858.139 118.624 859.528 114.238 859.528 109.393H850.288C850.288 112.452 849.454 114.242 848.306 115.389L854.84 121.923ZM859.528 109.393C859.528 105.522 858.174 102.02 855.678 99.0252L848.58 104.941C849.789 106.392 850.288 107.83 850.288 109.393H859.528ZM855.776 99.1464C853.614 96.3671 850.728 93.9757 847.281 91.9077L842.527 99.8312C845.256 101.468 847.186 103.153 848.482 104.819L855.776 99.1464ZM847.353 91.9516C844.109 89.9245 840.562 88.1886 836.724 86.733L833.447 95.3727C836.773 96.6341 839.771 98.1094 842.456 99.7873L847.353 91.9516ZM836.736 86.7374C832.655 85.1773 828.441 83.3716 824.091 81.3174L820.145 89.6729C824.687 91.8179 829.118 93.7173 833.436 95.3683L836.736 86.7374ZM824.091 81.3174C819.928 79.3516 815.996 76.9814 812.293 74.2036L806.748 81.5958C810.949 84.7461 815.416 87.4396 820.145 89.6729L824.091 81.3174ZM812.421 74.3033C809.071 71.6019 806.302 68.2996 804.111 64.3554L796.034 68.8428C798.783 73.7909 802.313 78.0223 806.62 81.4961L812.421 74.3033ZM804.182 64.4886C802.25 60.7263 801.173 55.9336 801.173 49.9261H791.932C791.932 57.01 793.201 63.3326 795.962 68.7096L804.182 64.4886ZM801.173 49.9261C801.173 42.7113 802.745 36.7032 805.709 31.7274L797.771 26.9981C793.819 33.6316 791.932 41.3325 791.932 49.9261H801.173ZM805.672 31.7888C808.788 26.7387 813.146 22.7283 818.874 19.7542L814.616 11.5535C807.5 15.2485 801.855 20.3774 797.808 26.9367L805.672 31.7888ZM818.936 19.7217C824.658 16.6403 831.371 14.8711 839.18 14.5266L838.772 5.29527C829.785 5.69177 821.677 7.75115 814.555 11.5859L818.936 19.7217ZM838.976 14.5311C849.664 14.5311 857.936 15.8002 864.005 18.1175L867.301 9.48506C859.785 6.61522 850.272 5.29078 838.976 5.29078V14.5311ZM864.031 18.1273C870.666 20.6156 876.526 23.5536 881.636 26.9217L886.721 19.2064C880.963 15.4113 874.472 12.1742 867.275 9.47531L864.031 18.1273ZM880.039 21.0128L869.85 41.5762L878.129 45.6787L888.318 25.1153L880.039 21.0128ZM892.516 10.6519V6.03179H887.896V10.6519H892.516ZM985.515 10.6519H990.135V6.03179H985.515V10.6519ZM985.515 36.5877V41.2079H990.135V36.5877H985.515ZM919.378 36.5877V31.9676H914.758V36.5877H919.378ZM919.378 65.6728H914.758V70.293H919.378V65.6728ZM977.919 65.6728H982.539V61.0527H977.919V65.6728ZM977.919 91.6086V96.2287H982.539V91.6086H977.919ZM919.378 91.6086V86.9885H914.758V91.6086H919.378ZM919.378 121.064H914.758V125.684H919.378V121.064ZM988.108 121.064H992.728V116.444H988.108V121.064ZM988.108 147V151.62H992.728V147H988.108ZM892.516 147H887.896V151.62H892.516V147ZM892.516 15.2721H985.515V6.03179H892.516V15.2721ZM980.894 10.6519V36.5877H990.135V10.6519H980.894ZM985.515 31.9676H919.378V41.2079H985.515V31.9676ZM914.758 36.5877V65.6728H923.999V36.5877H914.758ZM919.378 70.293H977.919V61.0527H919.378V70.293ZM973.299 65.6728V91.6086H982.539V65.6728H973.299ZM977.919 86.9885H919.378V96.2287H977.919V86.9885ZM914.758 91.6086V121.064H923.999V91.6086H914.758ZM919.378 125.684H988.108V116.444H919.378V125.684ZM983.488 121.064V147H992.728V121.064H983.488ZM988.108 142.38H892.516V151.62H988.108V142.38ZM897.136 147V10.6519H887.896V147H897.136Z" fill="#7E2DFC"/>
</g>
<defs>
<filter id="filter0_d_5_3567" x="18.3873" y="0.933838" width="1011.44" height="185.908" filterUnits="userSpaceOnUse" color-interpolation-filters="sRGB">
<feFlood flood-opacity="0" result="BackgroundImageFix"/>
<feColorMatrix in="SourceAlpha" type="matrix" values="0 0 0 0 0 0 0 0 0 0 0 0 0 0 0 0 0 0 127 0" result="hardAlpha"/>
<feOffset dx="13.7915" dy="17.4692"/>
<feGaussianBlur stdDeviation="6.89573"/>
<feComposite in2="hardAlpha" operator="out"/>
<feColorMatrix type="matrix" values="0 0 0 0 0 0 0 0 0 0 0 0 0 0 0 0 0 0 0.25 0"/>
<feBlend mode="normal" in2="BackgroundImageFix" result="effect1_dropShadow_5_3567"/>
<feBlend mode="normal" in="SourceGraphic" in2="effect1_dropShadow_5_3567" result="shape"/>
</filter>
<radialGradient id="paint0_radial_5_3567" cx="0" cy="0" r="1" gradientUnits="userSpaceOnUse" gradientTransform="translate(506.5 101) rotate(90) scale(97 506.5)">
<stop stop-color="#F4BDBD"/>
<stop offset="1" stop-color="#30F1C3" stop-opacity="0"/>
</radialGradient>
<linearGradient id="paint1_linear_5_3567" x1="506.5" y1="8" x2="506.5" y2="193" gradientUnits="userSpaceOnUse">
<stop stop-color="#19F4F4"/>
<stop offset="0.256276" stop-color="#6CADF9" stop-opacity="0.99075"/>
<stop offset="0.598249" stop-color="#D981FF" stop-opacity="0.98"/>
<stop offset="1" stop-color="#6316AF" stop-opacity="0.52"/>
</linearGradient>
</defs>
</svg>
