<svg width="1868" height="820" viewBox="0 0 1868 820" fill="none" xmlns="http://www.w3.org/2000/svg">
<g clip-path="url(#clip0_115_11)">
<path d="M372.984 383.904C371.81 383.904 370.87 382.964 370.87 381.789C370.87 380.615 371.81 379.675 372.984 379.675C374.159 379.675 375.099 380.615 375.099 381.789C375.099 382.886 374.159 383.904 372.984 383.904Z" fill="white"/>
<path d="M395.932 295.012C394.757 295.012 393.817 294.073 393.817 292.898C393.817 291.723 394.757 290.783 395.932 290.783C397.107 290.783 398.046 291.723 398.046 292.898C398.046 294.073 397.107 295.012 395.932 295.012Z" fill="white"/>
<path d="M544.972 400.351C544.581 400.351 544.267 400.038 544.267 399.646C544.267 399.254 544.581 398.941 544.972 398.941C545.364 398.941 545.677 399.254 545.677 399.646C545.677 400.038 545.364 400.351 544.972 400.351Z" fill="white"/>
<path d="M537.454 802.36C536.827 802.36 536.357 801.89 536.357 801.264C536.357 800.637 536.827 800.167 537.454 800.167C538.08 800.167 538.55 800.637 538.55 801.264C538.472 801.89 538.002 802.36 537.454 802.36Z" fill="white"/>
<path d="M651.72 756.152C651.72 756.758 652.211 757.249 652.817 757.249C653.422 757.249 653.913 756.758 653.913 756.152C653.913 755.547 653.422 755.056 652.817 755.056C652.211 755.056 651.72 755.547 651.72 756.152Z" fill="white"/>
<path d="M685.084 583.068C684.066 583.068 683.283 582.285 683.283 581.267C683.283 580.249 684.066 579.465 685.084 579.465C686.102 579.465 686.885 580.249 686.885 581.267C686.885 582.285 686.024 583.068 685.084 583.068Z" fill="white"/>
<path d="M370.087 819.59C369.304 819.59 368.677 818.964 368.677 818.18C368.677 817.397 369.304 816.771 370.087 816.771C370.87 816.771 371.497 817.397 371.497 818.18C371.497 818.964 370.87 819.59 370.087 819.59Z" fill="white"/>
<path d="M337.115 368.867C335.94 368.867 335 367.927 335 366.752C335 365.577 335.94 364.638 337.115 364.638C338.289 364.638 339.229 365.577 339.229 366.752C339.307 367.849 338.289 368.867 337.115 368.867Z" fill="white"/>
<path d="M363.978 293.603C362.96 293.603 362.177 292.819 362.177 291.801C362.177 290.783 362.96 290 363.978 290C364.996 290 365.779 290.783 365.779 291.801C365.779 292.819 364.996 293.603 363.978 293.603Z" fill="white"/>
<path d="M568.938 338.714C567.528 338.714 566.431 337.618 566.431 336.208C566.431 334.798 567.528 333.702 568.938 333.702C570.347 333.702 571.444 334.798 571.444 336.208C571.444 337.618 570.347 338.714 568.938 338.714Z" fill="white"/>
<path d="M648.901 536.547C647.335 536.547 646.003 535.294 646.003 533.649C646.003 532.083 647.256 530.751 648.901 530.751C650.546 530.751 651.799 532.004 651.799 533.649C651.72 535.215 650.467 536.547 648.901 536.547Z" fill="white"/>
<path d="M665.739 450.553C663.546 450.553 661.823 448.752 661.823 446.637C661.823 444.444 663.625 442.721 665.739 442.721C667.932 442.721 669.655 444.523 669.655 446.637C669.655 448.752 667.854 450.553 665.739 450.553Z" fill="white"/>
<path d="M503.385 416.876C503.385 418.477 504.682 419.774 506.283 419.774C507.883 419.774 509.181 418.477 509.181 416.876C509.181 415.276 507.883 413.978 506.283 413.978C504.682 413.978 503.385 415.276 503.385 416.876Z" fill="white"/>
<path d="M510.59 315.062C508.632 315.062 506.988 313.496 506.988 311.459C506.988 309.501 508.554 307.857 510.59 307.857C512.548 307.857 514.193 309.423 514.193 311.459C514.115 313.496 512.548 315.062 510.59 315.062Z" fill="white"/>
<path d="M685.397 701.016C685.397 702.011 686.204 702.817 687.199 702.817C688.194 702.817 689 702.011 689 701.016C689 700.021 688.194 699.215 687.199 699.215C686.204 699.215 685.397 700.021 685.397 701.016Z" fill="white"/>
<path d="M675.764 375.289C673.963 375.289 672.553 373.879 672.553 372.078C672.553 370.276 673.963 368.867 675.764 368.867C677.565 368.867 678.975 370.276 678.975 372.078C678.975 373.801 677.487 375.289 675.764 375.289Z" fill="white"/>
</g>
<g clip-path="url(#clip1_115_11)">
<path d="M1347.61 59.3374C1347.61 57.5022 1349.07 56.0341 1350.91 56.0341C1352.74 56.0341 1354.21 57.5022 1354.21 59.3374C1354.21 61.1726 1352.74 62.6407 1350.91 62.6407C1349.2 62.6407 1347.61 61.1726 1347.61 59.3374Z" fill="white"/>
<path d="M1486.47 95.1844C1486.47 93.3492 1487.94 91.8811 1489.77 91.8811C1491.61 91.8811 1493.07 93.3492 1493.07 95.1844C1493.07 97.0196 1491.61 98.4877 1489.77 98.4877C1487.94 98.4877 1486.47 97.0196 1486.47 95.1844Z" fill="white"/>
<path d="M1321.91 328.007C1321.91 327.396 1322.4 326.906 1323.01 326.906C1323.63 326.906 1324.12 327.396 1324.12 328.007C1324.12 328.619 1323.63 329.108 1323.01 329.108C1322.4 329.108 1321.91 328.619 1321.91 328.007Z" fill="white"/>
<path d="M693.916 316.262C693.916 315.283 694.65 314.549 695.629 314.549C696.608 314.549 697.342 315.283 697.342 316.262C697.342 317.241 696.608 317.975 695.629 317.975C694.65 317.853 693.916 317.118 693.916 316.262Z" fill="white"/>
<path d="M766.1 494.764C765.154 494.764 764.387 495.53 764.387 496.476C764.387 497.422 765.154 498.189 766.1 498.189C767.046 498.189 767.813 497.422 767.813 496.476C767.813 495.53 767.046 494.764 766.1 494.764Z" fill="white"/>
<path d="M1036.48 546.883C1036.48 545.292 1037.71 544.069 1039.3 544.069C1040.89 544.069 1042.11 545.292 1042.11 546.883C1042.11 548.473 1040.89 549.697 1039.3 549.697C1037.71 549.697 1036.48 548.351 1036.48 546.883Z" fill="white"/>
<path d="M667 54.8106C667 53.5872 667.979 52.6084 669.203 52.6084C670.426 52.6084 671.405 53.5872 671.405 54.8106C671.405 56.0341 670.426 57.0128 669.203 57.0128C667.979 57.0128 667 56.0341 667 54.8106Z" fill="white"/>
<path d="M1371.1 3.30309C1371.1 1.46791 1372.56 -0.000245786 1374.4 -0.000245626C1376.24 -0.000245465 1377.7 1.46791 1377.7 3.30309C1377.7 5.13826 1376.24 6.60638 1374.4 6.60638C1372.69 6.72873 1371.1 5.13826 1371.1 3.30309Z" fill="white"/>
<path d="M1488.67 45.2679C1488.67 43.6774 1489.89 42.454 1491.48 42.454C1493.07 42.454 1494.3 43.6774 1494.3 45.2679C1494.3 46.8584 1493.07 48.0818 1491.48 48.0818C1489.89 48.0818 1488.67 46.8584 1488.67 45.2679Z" fill="white"/>
<path d="M1418.2 365.445C1418.2 363.243 1419.91 361.53 1422.11 361.53C1424.32 361.53 1426.03 363.243 1426.03 365.445C1426.03 367.647 1424.32 369.36 1422.11 369.36C1419.91 369.36 1418.2 367.647 1418.2 365.445Z" fill="white"/>
<path d="M1109.16 490.359C1109.16 487.912 1111.11 485.833 1113.68 485.833C1116.13 485.833 1118.21 487.79 1118.21 490.359C1118.21 492.929 1116.25 494.886 1113.68 494.886C1111.24 494.764 1109.16 492.806 1109.16 490.359Z" fill="white"/>
<path d="M1243.49 516.664C1243.49 513.238 1246.3 510.546 1249.61 510.546C1253.03 510.546 1255.73 513.36 1255.73 516.664C1255.73 520.089 1252.91 522.781 1249.61 522.781C1246.3 522.781 1243.49 519.967 1243.49 516.664Z" fill="white"/>
<path d="M1296.1 263.042C1293.6 263.042 1291.57 265.069 1291.57 267.569C1291.57 270.069 1293.6 272.096 1296.1 272.096C1298.6 272.096 1300.63 270.069 1300.63 267.569C1300.63 265.069 1298.6 263.042 1296.1 263.042Z" fill="white"/>
<path d="M1455.15 274.298C1455.15 271.239 1457.59 268.67 1460.78 268.67C1463.83 268.67 1466.4 271.117 1466.4 274.298C1466.4 277.357 1463.96 279.926 1460.78 279.926C1457.59 279.803 1455.15 277.357 1455.15 274.298Z" fill="white"/>
<path d="M852.231 547.372C850.677 547.372 849.417 548.632 849.417 550.186C849.417 551.74 850.677 553 852.231 553C853.785 553 855.045 551.74 855.045 550.186C855.045 548.632 853.785 547.372 852.231 547.372Z" fill="white"/>
<path d="M1361.06 532.324C1361.06 529.51 1363.27 527.308 1366.08 527.308C1368.89 527.308 1371.1 529.51 1371.1 532.324C1371.1 535.138 1368.89 537.34 1366.08 537.34C1363.39 537.34 1361.06 535.015 1361.06 532.324Z" fill="white"/>
<g clip-path="url(#clip2_115_11)">
<path d="M764.984 276.904C763.81 276.904 762.87 275.964 762.87 274.789C762.87 273.614 763.81 272.675 764.984 272.675C766.159 272.675 767.099 273.614 767.099 274.789C767.099 275.886 766.159 276.904 764.984 276.904Z" fill="white"/>
<path d="M787.932 188.012C786.757 188.012 785.817 187.072 785.817 185.898C785.817 184.723 786.757 183.783 787.932 183.783C789.107 183.783 790.046 184.723 790.046 185.898C790.046 187.072 789.107 188.012 787.932 188.012Z" fill="white"/>
<path d="M936.972 293.351C936.581 293.351 936.267 293.037 936.267 292.646C936.267 292.254 936.581 291.941 936.972 291.941C937.364 291.941 937.677 292.254 937.677 292.646C937.677 293.037 937.364 293.351 936.972 293.351Z" fill="white"/>
<path d="M1077.08 476.068C1076.07 476.068 1075.28 475.285 1075.28 474.267C1075.28 473.249 1076.07 472.465 1077.08 472.465C1078.1 472.465 1078.89 473.249 1078.89 474.267C1078.89 475.285 1078.02 476.068 1077.08 476.068Z" fill="white"/>
<path d="M729.115 261.867C727.94 261.867 727 260.927 727 259.752C727 258.577 727.94 257.638 729.115 257.638C730.289 257.638 731.229 258.577 731.229 259.752C731.307 260.849 730.289 261.867 729.115 261.867Z" fill="white"/>
<path d="M755.978 186.603C754.96 186.603 754.177 185.819 754.177 184.801C754.177 183.783 754.96 183 755.978 183C756.996 183 757.779 183.783 757.779 184.801C757.779 185.819 756.996 186.603 755.978 186.603Z" fill="white"/>
<path d="M960.938 231.714C959.528 231.714 958.431 230.618 958.431 229.208C958.431 227.798 959.528 226.702 960.938 226.702C962.347 226.702 963.444 227.798 963.444 229.208C963.444 230.618 962.347 231.714 960.938 231.714Z" fill="white"/>
<path d="M1040.9 429.547C1039.33 429.547 1038 428.294 1038 426.649C1038 425.083 1039.26 423.751 1040.9 423.751C1042.55 423.751 1043.8 425.004 1043.8 426.649C1043.72 428.215 1042.47 429.547 1040.9 429.547Z" fill="white"/>
<path d="M1057.74 343.553C1055.55 343.553 1053.82 341.752 1053.82 339.637C1053.82 337.444 1055.62 335.721 1057.74 335.721C1059.93 335.721 1061.66 337.522 1061.66 339.637C1061.66 341.752 1059.85 343.553 1057.74 343.553Z" fill="white"/>
<path d="M895.385 309.876C895.385 311.476 896.682 312.774 898.283 312.774C899.883 312.774 901.181 311.476 901.181 309.876C901.181 308.276 899.883 306.978 898.283 306.978C896.682 306.978 895.385 308.276 895.385 309.876Z" fill="white"/>
<path d="M902.59 208.062C900.632 208.062 898.988 206.495 898.988 204.459C898.988 202.501 900.554 200.857 902.59 200.857C904.548 200.857 906.193 202.423 906.193 204.459C906.115 206.495 904.548 208.062 902.59 208.062Z" fill="white"/>
<path d="M1067.76 268.289C1065.96 268.289 1064.55 266.879 1064.55 265.078C1064.55 263.276 1065.96 261.867 1067.76 261.867C1069.57 261.867 1070.98 263.276 1070.98 265.078C1070.98 266.801 1069.49 268.289 1067.76 268.289Z" fill="white"/>
</g>
</g>
<g clip-path="url(#clip3_115_11)">
<path d="M93.9039 547.016C93.9039 548.19 92.9641 549.13 91.7893 549.13C90.6145 549.13 89.6747 548.19 89.6747 547.016C89.6747 545.841 90.6145 544.901 91.7893 544.901C92.8857 544.901 93.9039 545.841 93.9039 547.016Z" fill="white"/>
<path d="M5.01235 524.068C5.01235 525.243 4.07252 526.183 2.89774 526.183C1.72297 526.183 0.783142 525.243 0.783142 524.068C0.783142 522.893 1.72297 521.954 2.89774 521.954C4.07252 521.954 5.01235 522.893 5.01235 524.068Z" fill="white"/>
<path d="M110.351 375.028C110.351 375.42 110.037 375.733 109.646 375.733C109.254 375.733 108.941 375.42 108.941 375.028C108.941 374.636 109.254 374.323 109.646 374.323C110.037 374.323 110.351 374.636 110.351 375.028Z" fill="white"/>
<path d="M512.36 382.546C512.36 383.173 511.89 383.643 511.264 383.643C510.637 383.643 510.167 383.173 510.167 382.546C510.167 381.92 510.637 381.45 511.264 381.45C511.89 381.528 512.36 381.998 512.36 382.546Z" fill="white"/>
<path d="M466.152 268.28C466.758 268.28 467.249 267.789 467.249 267.183C467.249 266.578 466.758 266.087 466.152 266.087C465.547 266.087 465.056 266.578 465.056 267.183C465.056 267.789 465.547 268.28 466.152 268.28Z" fill="white"/>
<path d="M293.068 234.916C293.068 235.934 292.285 236.717 291.267 236.717C290.249 236.717 289.465 235.934 289.465 234.916C289.465 233.898 290.249 233.115 291.267 233.115C292.285 233.115 293.068 233.976 293.068 234.916Z" fill="white"/>
<path d="M529.59 549.913C529.59 550.696 528.964 551.323 528.18 551.323C527.397 551.323 526.771 550.696 526.771 549.913C526.771 549.13 527.397 548.503 528.18 548.503C528.964 548.503 529.59 549.13 529.59 549.913Z" fill="white"/>
<path d="M78.8668 582.886C78.8668 584.06 77.927 585 76.7522 585C75.5774 585 74.6376 584.06 74.6376 582.886C74.6376 581.711 75.5774 580.771 76.7522 580.771C77.8486 580.693 78.8668 581.711 78.8668 582.886Z" fill="white"/>
<path d="M3.60259 556.022C3.60259 557.04 2.81941 557.823 1.80127 557.823C0.783125 557.823 -6.10352e-05 557.04 -6.10352e-05 556.022C-6.10352e-05 555.004 0.783125 554.221 1.80127 554.221C2.81941 554.221 3.60259 555.004 3.60259 556.022Z" fill="white"/>
<path d="M48.7141 351.062C48.7141 352.472 47.6177 353.569 46.2079 353.569C44.7982 353.569 43.7017 352.472 43.7017 351.062C43.7017 349.653 44.7982 348.556 46.2079 348.556C47.6177 348.556 48.7141 349.653 48.7141 351.062Z" fill="white"/>
<path d="M246.547 271.099C246.547 272.666 245.294 273.997 243.649 273.997C242.083 273.997 240.751 272.744 240.751 271.099C240.751 269.454 242.004 268.201 243.649 268.201C245.215 268.28 246.547 269.533 246.547 271.099Z" fill="white"/>
<path d="M160.553 254.261C160.553 256.454 158.752 258.177 156.637 258.177C154.444 258.177 152.721 256.375 152.721 254.261C152.721 252.068 154.523 250.345 156.637 250.345C158.752 250.345 160.553 252.146 160.553 254.261Z" fill="white"/>
<path d="M126.876 416.615C128.476 416.615 129.774 415.318 129.774 413.717C129.774 412.117 128.476 410.819 126.876 410.819C125.276 410.819 123.978 412.117 123.978 413.717C123.978 415.318 125.276 416.615 126.876 416.615Z" fill="white"/>
<path d="M25.0619 409.41C25.0619 411.368 23.4955 413.012 21.4592 413.012C19.5013 413.012 17.8566 411.446 17.8566 409.41C17.8566 407.452 19.4229 405.807 21.4592 405.807C23.4955 405.885 25.0619 407.452 25.0619 409.41Z" fill="white"/>
<path d="M411.016 234.603C412.011 234.603 412.817 233.796 412.817 232.801C412.817 231.807 412.011 231 411.016 231C410.021 231 409.215 231.807 409.215 232.801C409.215 233.796 410.021 234.603 411.016 234.603Z" fill="white"/>
<path d="M85.2888 244.236C85.2888 246.037 83.8791 247.447 82.0778 247.447C80.2764 247.447 78.8667 246.037 78.8667 244.236C78.8667 242.435 80.2764 241.025 82.0778 241.025C83.8008 241.025 85.2888 242.513 85.2888 244.236Z" fill="white"/>
</g>
<g clip-path="url(#clip4_115_11)">
<path d="M1801.46 195.718C1801.46 194.892 1802.12 194.23 1802.94 194.23C1803.77 194.23 1804.43 194.892 1804.43 195.718C1804.43 196.544 1803.77 197.205 1802.94 197.205C1802.17 197.205 1801.46 196.544 1801.46 195.718Z" fill="white"/>
<path d="M1863.98 211.859C1863.98 211.032 1864.64 210.371 1865.47 210.371C1866.3 210.371 1866.96 211.032 1866.96 211.859C1866.96 212.685 1866.3 213.346 1865.47 213.346C1864.64 213.346 1863.98 212.685 1863.98 211.859Z" fill="white"/>
<path d="M1789.89 316.692C1789.89 316.417 1790.11 316.196 1790.38 316.196C1790.66 316.196 1790.88 316.417 1790.88 316.692C1790.88 316.968 1790.66 317.188 1790.38 317.188C1790.11 317.188 1789.89 316.968 1789.89 316.692Z" fill="white"/>
<path d="M1507.12 311.404C1507.12 310.963 1507.45 310.632 1507.89 310.632C1508.33 310.632 1508.66 310.963 1508.66 311.404C1508.66 311.844 1508.33 312.175 1507.89 312.175C1507.45 312.12 1507.12 311.789 1507.12 311.404Z" fill="white"/>
<path d="M1539.62 391.778C1539.2 391.778 1538.85 392.123 1538.85 392.549C1538.85 392.975 1539.2 393.32 1539.62 393.32C1540.05 393.32 1540.39 392.975 1540.39 392.549C1540.39 392.123 1540.05 391.778 1539.62 391.778Z" fill="white"/>
<path d="M1661.37 415.246C1661.37 414.529 1661.92 413.978 1662.63 413.978C1663.35 413.978 1663.9 414.529 1663.9 415.246C1663.9 415.962 1663.35 416.513 1662.63 416.513C1661.92 416.513 1661.37 415.907 1661.37 415.246Z" fill="white"/>
<path d="M1495 193.68C1495 193.129 1495.44 192.688 1495.99 192.688C1496.54 192.688 1496.98 193.129 1496.98 193.68C1496.98 194.23 1496.54 194.671 1495.99 194.671C1495.44 194.671 1495 194.23 1495 193.68Z" fill="white"/>
<path d="M1812.03 170.487C1812.03 169.661 1812.7 169 1813.52 169C1814.35 169 1815.01 169.661 1815.01 170.487C1815.01 171.314 1814.35 171.975 1813.52 171.975C1812.75 172.03 1812.03 171.314 1812.03 170.487Z" fill="white"/>
<path d="M1864.97 189.383C1864.97 188.667 1865.53 188.116 1866.24 188.116C1866.96 188.116 1867.51 188.667 1867.51 189.383C1867.51 190.099 1866.96 190.65 1866.24 190.65C1865.53 190.65 1864.97 190.099 1864.97 189.383Z" fill="white"/>
<path d="M1833.24 333.549C1833.24 332.558 1834.01 331.786 1835.01 331.786C1836 331.787 1836.77 332.558 1836.77 333.549C1836.77 334.541 1836 335.312 1835.01 335.312C1834.01 335.312 1833.24 334.541 1833.24 333.549Z" fill="white"/>
<path d="M1694.09 389.795C1694.09 388.693 1694.97 387.756 1696.13 387.756C1697.23 387.756 1698.17 388.638 1698.17 389.795C1698.17 390.952 1697.29 391.833 1696.13 391.833C1695.03 391.778 1694.09 390.896 1694.09 389.795Z" fill="white"/>
<path d="M1754.58 401.639C1754.58 400.096 1755.84 398.884 1757.33 398.884C1758.87 398.884 1760.09 400.151 1760.09 401.639C1760.09 403.181 1758.82 404.393 1757.33 404.393C1755.84 404.393 1754.58 403.126 1754.58 401.639Z" fill="white"/>
<path d="M1778.27 287.44C1777.14 287.44 1776.23 288.353 1776.23 289.479C1776.23 290.604 1777.14 291.517 1778.27 291.517C1779.39 291.517 1780.3 290.604 1780.3 289.479C1780.3 288.353 1779.39 287.44 1778.27 287.44Z" fill="white"/>
<path d="M1849.88 292.508C1849.88 291.131 1850.98 289.974 1852.41 289.974C1853.79 289.974 1854.95 291.076 1854.95 292.508C1854.95 293.886 1853.85 295.042 1852.41 295.042C1850.98 294.987 1849.88 293.886 1849.88 292.508Z" fill="white"/>
<path d="M1578.4 415.466C1577.7 415.466 1577.14 416.033 1577.14 416.733C1577.14 417.433 1577.7 418 1578.4 418C1579.1 418 1579.67 417.433 1579.67 416.733C1579.67 416.033 1579.1 415.466 1578.4 415.466Z" fill="white"/>
<path d="M1807.52 408.69C1807.52 407.423 1808.51 406.431 1809.78 406.431C1811.04 406.431 1812.03 407.423 1812.03 408.69C1812.03 409.957 1811.04 410.949 1809.78 410.949C1808.56 410.949 1807.52 409.902 1807.52 408.69Z" fill="white"/>
</g>
<g filter="url(#filter0_d_115_11)">
<rect x="567.82" y="341.502" width="3.67772" height="14.7109" rx="1.83886" fill="white"/>
</g>
<g filter="url(#filter1_d_115_11)">
<rect x="682.99" y="320.946" width="4.90383" height="14.7109" rx="2.45192" transform="rotate(90 682.99 320.946)" fill="white"/>
</g>
<g filter="url(#filter2_d_115_11)">
<rect x="776.531" y="327.711" width="4.90383" height="14.7109" rx="2.45192" transform="rotate(90 776.531 327.711)" fill="white"/>
</g>
<g filter="url(#filter3_d_115_11)">
<rect x="841.888" y="345.866" width="4.90383" height="14.695" rx="2.45192" transform="rotate(157.316 841.888 345.866)" fill="white"/>
</g>
<defs>
<filter id="filter0_d_115_11" x="563.223" y="336.905" width="12.872" height="23.9052" filterUnits="userSpaceOnUse" color-interpolation-filters="sRGB">
<feFlood flood-opacity="0" result="BackgroundImageFix"/>
<feColorMatrix in="SourceAlpha" type="matrix" values="0 0 0 0 0 0 0 0 0 0 0 0 0 0 0 0 0 0 127 0" result="hardAlpha"/>
<feOffset/>
<feGaussianBlur stdDeviation="2.29858"/>
<feComposite in2="hardAlpha" operator="out"/>
<feColorMatrix type="matrix" values="0 0 0 0 0 0 0 0 0 0 0 0 0 0 0 0 0 0 0.25 0"/>
<feBlend mode="normal" in2="BackgroundImageFix" result="effect1_dropShadow_115_11"/>
<feBlend mode="normal" in="SourceGraphic" in2="effect1_dropShadow_115_11" result="shape"/>
</filter>
<filter id="filter1_d_115_11" x="664.601" y="317.269" width="22.0664" height="12.2593" filterUnits="userSpaceOnUse" color-interpolation-filters="sRGB">
<feFlood flood-opacity="0" result="BackgroundImageFix"/>
<feColorMatrix in="SourceAlpha" type="matrix" values="0 0 0 0 0 0 0 0 0 0 0 0 0 0 0 0 0 0 127 0" result="hardAlpha"/>
<feOffset/>
<feGaussianBlur stdDeviation="1.83886"/>
<feComposite in2="hardAlpha" operator="out"/>
<feColorMatrix type="matrix" values="0 0 0 0 0 0 0 0 0 0 0 0 0 0 0 0 0 0 0.25 0"/>
<feBlend mode="normal" in2="BackgroundImageFix" result="effect1_dropShadow_115_11"/>
<feBlend mode="normal" in="SourceGraphic" in2="effect1_dropShadow_115_11" result="shape"/>
</filter>
<filter id="filter2_d_115_11" x="758.142" y="324.033" width="22.0664" height="12.2593" filterUnits="userSpaceOnUse" color-interpolation-filters="sRGB">
<feFlood flood-opacity="0" result="BackgroundImageFix"/>
<feColorMatrix in="SourceAlpha" type="matrix" values="0 0 0 0 0 0 0 0 0 0 0 0 0 0 0 0 0 0 127 0" result="hardAlpha"/>
<feOffset/>
<feGaussianBlur stdDeviation="1.83886"/>
<feComposite in2="hardAlpha" operator="out"/>
<feColorMatrix type="matrix" values="0 0 0 0 0 0 0 0 0 0 0 0 0 0 0 0 0 0 0.25 0"/>
<feBlend mode="normal" in2="BackgroundImageFix" result="effect1_dropShadow_115_11"/>
<feBlend mode="normal" in="SourceGraphic" in2="effect1_dropShadow_115_11" result="shape"/>
</filter>
<filter id="filter3_d_115_11" x="828.774" y="329.386" width="16.0365" height="21.2944" filterUnits="userSpaceOnUse" color-interpolation-filters="sRGB">
<feFlood flood-opacity="0" result="BackgroundImageFix"/>
<feColorMatrix in="SourceAlpha" type="matrix" values="0 0 0 0 0 0 0 0 0 0 0 0 0 0 0 0 0 0 127 0" result="hardAlpha"/>
<feOffset/>
<feGaussianBlur stdDeviation="1.83886"/>
<feComposite in2="hardAlpha" operator="out"/>
<feColorMatrix type="matrix" values="0 0 0 0 0 0 0 0 0 0 0 0 0 0 0 0 0 0 0.25 0"/>
<feBlend mode="normal" in2="BackgroundImageFix" result="effect1_dropShadow_115_11"/>
<feBlend mode="normal" in="SourceGraphic" in2="effect1_dropShadow_115_11" result="shape"/>
</filter>
<clipPath id="clip0_115_11">
<rect width="529.59" height="354" fill="white" transform="translate(689 290) rotate(90)"/>
</clipPath>
<clipPath id="clip1_115_11">
<rect width="827.298" height="553" fill="white" transform="translate(1494.3 553) rotate(-180)"/>
</clipPath>
<clipPath id="clip2_115_11">
<rect width="529.59" height="354" fill="white" transform="translate(1081 183) rotate(90)"/>
</clipPath>
<clipPath id="clip3_115_11">
<rect width="529.59" height="354" fill="white" transform="translate(0 231)"/>
</clipPath>
<clipPath id="clip4_115_11">
<rect width="372.508" height="249" fill="white" transform="translate(1867.51 418) rotate(-180)"/>
</clipPath>
</defs>
</svg>
